<?xml version="1.0" encoding="utf-8" standalone="no"?>
<!DOCTYPE svg PUBLIC "-//W3C//DTD SVG 1.1//EN"
  "http://www.w3.org/Graphics/SVG/1.1/DTD/svg11.dtd">
<!-- Created with matplotlib (https://matplotlib.org/) -->
<svg height="720pt" version="1.1" viewBox="0 0 1080 720" width="1080pt" xmlns="http://www.w3.org/2000/svg" xmlns:xlink="http://www.w3.org/1999/xlink">
 <defs>
  <style type="text/css">
*{stroke-linecap:butt;stroke-linejoin:round;}
  </style>
 </defs>
 <g id="figure_1">
  <g id="patch_1">
   <path d="M 0 720 
L 1080 720 
L 1080 0 
L 0 0 
z
" style="fill:#ffffff;"/>
  </g>
  <g id="axes_1">
   <g id="patch_2">
    <path d="M 135 630 
L 972 630 
L 972 86.4 
L 135 86.4 
z
" style="fill:#eaeaf2;"/>
   </g>
   <g id="matplotlib.axis_1">
    <g id="xtick_1">
     <g id="line2d_1">
      <path clip-path="url(#p7f3d6af386)" d="M 173.045455 630 
L 173.045455 86.4 
" style="fill:none;stroke:#ffffff;stroke-linecap:round;"/>
     </g>
     <g id="text_1">
      <!-- 0 -->
      <defs>
       <path d="M 4.15625 35.296875 
Q 4.15625 48 6.765625 55.734375 
Q 9.375 63.484375 14.515625 67.671875 
Q 19.671875 71.875 27.484375 71.875 
Q 33.25 71.875 37.59375 69.546875 
Q 41.9375 67.234375 44.765625 62.859375 
Q 47.609375 58.5 49.21875 52.21875 
Q 50.828125 45.953125 50.828125 35.296875 
Q 50.828125 22.703125 48.234375 14.96875 
Q 45.65625 7.234375 40.5 3 
Q 35.359375 -1.21875 27.484375 -1.21875 
Q 17.140625 -1.21875 11.234375 6.203125 
Q 4.15625 15.140625 4.15625 35.296875 
z
M 13.1875 35.296875 
Q 13.1875 17.671875 17.3125 11.828125 
Q 21.4375 6 27.484375 6 
Q 33.546875 6 37.671875 11.859375 
Q 41.796875 17.71875 41.796875 35.296875 
Q 41.796875 52.984375 37.671875 58.78125 
Q 33.546875 64.59375 27.390625 64.59375 
Q 21.34375 64.59375 17.71875 59.46875 
Q 13.1875 52.9375 13.1875 35.296875 
z
" id="ArialMT-48"/>
      </defs>
      <g style="fill:#262626;" transform="translate(165.399165 659.183984)scale(0.275 -0.275)">
       <use xlink:href="#ArialMT-48"/>
      </g>
     </g>
    </g>
    <g id="xtick_2">
     <g id="line2d_2">
      <path clip-path="url(#p7f3d6af386)" d="M 275.318182 630 
L 275.318182 86.4 
" style="fill:none;stroke:#ffffff;stroke-linecap:round;"/>
     </g>
     <g id="text_2">
      <!-- 100 -->
      <defs>
       <path d="M 37.25 0 
L 28.46875 0 
L 28.46875 56 
Q 25.296875 52.984375 20.140625 49.953125 
Q 14.984375 46.921875 10.890625 45.40625 
L 10.890625 53.90625 
Q 18.265625 57.375 23.78125 62.296875 
Q 29.296875 67.234375 31.59375 71.875 
L 37.25 71.875 
z
" id="ArialMT-49"/>
      </defs>
      <g style="fill:#262626;" transform="translate(252.379315 659.183984)scale(0.275 -0.275)">
       <use xlink:href="#ArialMT-49"/>
       <use x="55.615234" xlink:href="#ArialMT-48"/>
       <use x="111.230469" xlink:href="#ArialMT-48"/>
      </g>
     </g>
    </g>
    <g id="xtick_3">
     <g id="line2d_3">
      <path clip-path="url(#p7f3d6af386)" d="M 377.590909 630 
L 377.590909 86.4 
" style="fill:none;stroke:#ffffff;stroke-linecap:round;"/>
     </g>
     <g id="text_3">
      <!-- 200 -->
      <defs>
       <path d="M 50.34375 8.453125 
L 50.34375 0 
L 3.03125 0 
Q 2.9375 3.171875 4.046875 6.109375 
Q 5.859375 10.9375 9.828125 15.625 
Q 13.8125 20.3125 21.34375 26.46875 
Q 33.015625 36.03125 37.109375 41.625 
Q 41.21875 47.21875 41.21875 52.203125 
Q 41.21875 57.421875 37.46875 61 
Q 33.734375 64.59375 27.734375 64.59375 
Q 21.390625 64.59375 17.578125 60.78125 
Q 13.765625 56.984375 13.71875 50.25 
L 4.6875 51.171875 
Q 5.609375 61.28125 11.65625 66.578125 
Q 17.71875 71.875 27.9375 71.875 
Q 38.234375 71.875 44.234375 66.15625 
Q 50.25 60.453125 50.25 52 
Q 50.25 47.703125 48.484375 43.546875 
Q 46.734375 39.40625 42.65625 34.8125 
Q 38.578125 30.21875 29.109375 22.21875 
Q 21.1875 15.578125 18.9375 13.203125 
Q 16.703125 10.84375 15.234375 8.453125 
z
" id="ArialMT-50"/>
      </defs>
      <g style="fill:#262626;" transform="translate(354.652042 659.183984)scale(0.275 -0.275)">
       <use xlink:href="#ArialMT-50"/>
       <use x="55.615234" xlink:href="#ArialMT-48"/>
       <use x="111.230469" xlink:href="#ArialMT-48"/>
      </g>
     </g>
    </g>
    <g id="xtick_4">
     <g id="line2d_4">
      <path clip-path="url(#p7f3d6af386)" d="M 479.863636 630 
L 479.863636 86.4 
" style="fill:none;stroke:#ffffff;stroke-linecap:round;"/>
     </g>
     <g id="text_4">
      <!-- 300 -->
      <defs>
       <path d="M 4.203125 18.890625 
L 12.984375 20.0625 
Q 14.5 12.59375 18.140625 9.296875 
Q 21.78125 6 27 6 
Q 33.203125 6 37.46875 10.296875 
Q 41.75 14.59375 41.75 20.953125 
Q 41.75 27 37.796875 30.921875 
Q 33.84375 34.859375 27.734375 34.859375 
Q 25.25 34.859375 21.53125 33.890625 
L 22.515625 41.609375 
Q 23.390625 41.5 23.921875 41.5 
Q 29.546875 41.5 34.03125 44.421875 
Q 38.53125 47.359375 38.53125 53.46875 
Q 38.53125 58.296875 35.25 61.46875 
Q 31.984375 64.65625 26.8125 64.65625 
Q 21.6875 64.65625 18.265625 61.421875 
Q 14.84375 58.203125 13.875 51.765625 
L 5.078125 53.328125 
Q 6.6875 62.15625 12.390625 67.015625 
Q 18.109375 71.875 26.609375 71.875 
Q 32.46875 71.875 37.390625 69.359375 
Q 42.328125 66.84375 44.9375 62.5 
Q 47.5625 58.15625 47.5625 53.265625 
Q 47.5625 48.640625 45.0625 44.828125 
Q 42.578125 41.015625 37.703125 38.765625 
Q 44.046875 37.3125 47.5625 32.6875 
Q 51.078125 28.078125 51.078125 21.140625 
Q 51.078125 11.765625 44.234375 5.25 
Q 37.40625 -1.265625 26.953125 -1.265625 
Q 17.53125 -1.265625 11.296875 4.34375 
Q 5.078125 9.96875 4.203125 18.890625 
z
" id="ArialMT-51"/>
      </defs>
      <g style="fill:#262626;" transform="translate(456.924769 659.183984)scale(0.275 -0.275)">
       <use xlink:href="#ArialMT-51"/>
       <use x="55.615234" xlink:href="#ArialMT-48"/>
       <use x="111.230469" xlink:href="#ArialMT-48"/>
      </g>
     </g>
    </g>
    <g id="xtick_5">
     <g id="line2d_5">
      <path clip-path="url(#p7f3d6af386)" d="M 582.136364 630 
L 582.136364 86.4 
" style="fill:none;stroke:#ffffff;stroke-linecap:round;"/>
     </g>
     <g id="text_5">
      <!-- 400 -->
      <defs>
       <path d="M 32.328125 0 
L 32.328125 17.140625 
L 1.265625 17.140625 
L 1.265625 25.203125 
L 33.9375 71.578125 
L 41.109375 71.578125 
L 41.109375 25.203125 
L 50.78125 25.203125 
L 50.78125 17.140625 
L 41.109375 17.140625 
L 41.109375 0 
z
M 32.328125 25.203125 
L 32.328125 57.46875 
L 9.90625 25.203125 
z
" id="ArialMT-52"/>
      </defs>
      <g style="fill:#262626;" transform="translate(559.197496 659.183984)scale(0.275 -0.275)">
       <use xlink:href="#ArialMT-52"/>
       <use x="55.615234" xlink:href="#ArialMT-48"/>
       <use x="111.230469" xlink:href="#ArialMT-48"/>
      </g>
     </g>
    </g>
    <g id="xtick_6">
     <g id="line2d_6">
      <path clip-path="url(#p7f3d6af386)" d="M 684.409091 630 
L 684.409091 86.4 
" style="fill:none;stroke:#ffffff;stroke-linecap:round;"/>
     </g>
     <g id="text_6">
      <!-- 500 -->
      <defs>
       <path d="M 4.15625 18.75 
L 13.375 19.53125 
Q 14.40625 12.796875 18.140625 9.390625 
Q 21.875 6 27.15625 6 
Q 33.5 6 37.890625 10.78125 
Q 42.28125 15.578125 42.28125 23.484375 
Q 42.28125 31 38.0625 35.34375 
Q 33.84375 39.703125 27 39.703125 
Q 22.75 39.703125 19.328125 37.765625 
Q 15.921875 35.84375 13.96875 32.765625 
L 5.71875 33.84375 
L 12.640625 70.609375 
L 48.25 70.609375 
L 48.25 62.203125 
L 19.671875 62.203125 
L 15.828125 42.96875 
Q 22.265625 47.46875 29.34375 47.46875 
Q 38.71875 47.46875 45.15625 40.96875 
Q 51.609375 34.46875 51.609375 24.265625 
Q 51.609375 14.546875 45.953125 7.46875 
Q 39.0625 -1.21875 27.15625 -1.21875 
Q 17.390625 -1.21875 11.203125 4.25 
Q 5.03125 9.71875 4.15625 18.75 
z
" id="ArialMT-53"/>
      </defs>
      <g style="fill:#262626;" transform="translate(661.470224 659.183984)scale(0.275 -0.275)">
       <use xlink:href="#ArialMT-53"/>
       <use x="55.615234" xlink:href="#ArialMT-48"/>
       <use x="111.230469" xlink:href="#ArialMT-48"/>
      </g>
     </g>
    </g>
    <g id="xtick_7">
     <g id="line2d_7">
      <path clip-path="url(#p7f3d6af386)" d="M 786.681818 630 
L 786.681818 86.4 
" style="fill:none;stroke:#ffffff;stroke-linecap:round;"/>
     </g>
     <g id="text_7">
      <!-- 600 -->
      <defs>
       <path d="M 49.75 54.046875 
L 41.015625 53.375 
Q 39.84375 58.546875 37.703125 60.890625 
Q 34.125 64.65625 28.90625 64.65625 
Q 24.703125 64.65625 21.53125 62.3125 
Q 17.390625 59.28125 14.984375 53.46875 
Q 12.59375 47.65625 12.5 36.921875 
Q 15.671875 41.75 20.265625 44.09375 
Q 24.859375 46.4375 29.890625 46.4375 
Q 38.671875 46.4375 44.84375 39.96875 
Q 51.03125 33.5 51.03125 23.25 
Q 51.03125 16.5 48.125 10.71875 
Q 45.21875 4.9375 40.140625 1.859375 
Q 35.0625 -1.21875 28.609375 -1.21875 
Q 17.625 -1.21875 10.6875 6.859375 
Q 3.765625 14.9375 3.765625 33.5 
Q 3.765625 54.25 11.421875 63.671875 
Q 18.109375 71.875 29.4375 71.875 
Q 37.890625 71.875 43.28125 67.140625 
Q 48.6875 62.40625 49.75 54.046875 
z
M 13.875 23.1875 
Q 13.875 18.65625 15.796875 14.5 
Q 17.71875 10.359375 21.1875 8.171875 
Q 24.65625 6 28.46875 6 
Q 34.03125 6 38.03125 10.484375 
Q 42.046875 14.984375 42.046875 22.703125 
Q 42.046875 30.125 38.078125 34.390625 
Q 34.125 38.671875 28.125 38.671875 
Q 22.171875 38.671875 18.015625 34.390625 
Q 13.875 30.125 13.875 23.1875 
z
" id="ArialMT-54"/>
      </defs>
      <g style="fill:#262626;" transform="translate(763.742951 659.183984)scale(0.275 -0.275)">
       <use xlink:href="#ArialMT-54"/>
       <use x="55.615234" xlink:href="#ArialMT-48"/>
       <use x="111.230469" xlink:href="#ArialMT-48"/>
      </g>
     </g>
    </g>
    <g id="xtick_8">
     <g id="line2d_8">
      <path clip-path="url(#p7f3d6af386)" d="M 888.954545 630 
L 888.954545 86.4 
" style="fill:none;stroke:#ffffff;stroke-linecap:round;"/>
     </g>
     <g id="text_8">
      <!-- 700 -->
      <defs>
       <path d="M 4.734375 62.203125 
L 4.734375 70.65625 
L 51.078125 70.65625 
L 51.078125 63.8125 
Q 44.234375 56.546875 37.515625 44.484375 
Q 30.8125 32.421875 27.15625 19.671875 
Q 24.515625 10.6875 23.78125 0 
L 14.75 0 
Q 14.890625 8.453125 18.0625 20.40625 
Q 21.234375 32.375 27.171875 43.484375 
Q 33.109375 54.59375 39.796875 62.203125 
z
" id="ArialMT-55"/>
      </defs>
      <g style="fill:#262626;" transform="translate(866.015678 659.183984)scale(0.275 -0.275)">
       <use xlink:href="#ArialMT-55"/>
       <use x="55.615234" xlink:href="#ArialMT-48"/>
       <use x="111.230469" xlink:href="#ArialMT-48"/>
      </g>
     </g>
    </g>
   </g>
   <g id="matplotlib.axis_2">
    <g id="ytick_1">
     <g id="line2d_9">
      <path clip-path="url(#p7f3d6af386)" d="M 135 611.449524 
L 972 611.449524 
" style="fill:none;stroke:#ffffff;stroke-linecap:round;"/>
     </g>
     <g id="text_9">
      <!-- −100 -->
      <defs>
       <path d="M 52.828125 31.203125 
L 5.5625 31.203125 
L 5.5625 39.40625 
L 52.828125 39.40625 
z
" id="ArialMT-8722"/>
      </defs>
      <g style="fill:#262626;" transform="translate(63.560547 621.291516)scale(0.275 -0.275)">
       <use xlink:href="#ArialMT-8722"/>
       <use x="58.398438" xlink:href="#ArialMT-49"/>
       <use x="114.013672" xlink:href="#ArialMT-48"/>
       <use x="169.628906" xlink:href="#ArialMT-48"/>
      </g>
     </g>
    </g>
    <g id="ytick_2">
     <g id="line2d_10">
      <path clip-path="url(#p7f3d6af386)" d="M 135 535.191121 
L 972 535.191121 
" style="fill:none;stroke:#ffffff;stroke-linecap:round;"/>
     </g>
     <g id="text_10">
      <!-- −80 -->
      <defs>
       <path d="M 17.671875 38.8125 
Q 12.203125 40.828125 9.5625 44.53125 
Q 6.9375 48.25 6.9375 53.421875 
Q 6.9375 61.234375 12.546875 66.546875 
Q 18.171875 71.875 27.484375 71.875 
Q 36.859375 71.875 42.578125 66.421875 
Q 48.296875 60.984375 48.296875 53.171875 
Q 48.296875 48.1875 45.671875 44.5 
Q 43.0625 40.828125 37.75 38.8125 
Q 44.34375 36.671875 47.78125 31.875 
Q 51.21875 27.09375 51.21875 20.453125 
Q 51.21875 11.28125 44.71875 5.03125 
Q 38.234375 -1.21875 27.640625 -1.21875 
Q 17.046875 -1.21875 10.546875 5.046875 
Q 4.046875 11.328125 4.046875 20.703125 
Q 4.046875 27.6875 7.59375 32.390625 
Q 11.140625 37.109375 17.671875 38.8125 
z
M 15.921875 53.71875 
Q 15.921875 48.640625 19.1875 45.40625 
Q 22.46875 42.1875 27.6875 42.1875 
Q 32.765625 42.1875 36.015625 45.375 
Q 39.265625 48.578125 39.265625 53.21875 
Q 39.265625 58.0625 35.90625 61.359375 
Q 32.5625 64.65625 27.59375 64.65625 
Q 22.5625 64.65625 19.234375 61.421875 
Q 15.921875 58.203125 15.921875 53.71875 
z
M 13.09375 20.65625 
Q 13.09375 16.890625 14.875 13.375 
Q 16.65625 9.859375 20.171875 7.921875 
Q 23.6875 6 27.734375 6 
Q 34.03125 6 38.125 10.046875 
Q 42.234375 14.109375 42.234375 20.359375 
Q 42.234375 26.703125 38.015625 30.859375 
Q 33.796875 35.015625 27.4375 35.015625 
Q 21.234375 35.015625 17.15625 30.90625 
Q 13.09375 26.8125 13.09375 20.65625 
z
" id="ArialMT-56"/>
      </defs>
      <g style="fill:#262626;" transform="translate(78.853125 545.033113)scale(0.275 -0.275)">
       <use xlink:href="#ArialMT-8722"/>
       <use x="58.398438" xlink:href="#ArialMT-56"/>
       <use x="114.013672" xlink:href="#ArialMT-48"/>
      </g>
     </g>
    </g>
    <g id="ytick_3">
     <g id="line2d_11">
      <path clip-path="url(#p7f3d6af386)" d="M 135 458.932717 
L 972 458.932717 
" style="fill:none;stroke:#ffffff;stroke-linecap:round;"/>
     </g>
     <g id="text_11">
      <!-- −60 -->
      <g style="fill:#262626;" transform="translate(78.853125 468.774709)scale(0.275 -0.275)">
       <use xlink:href="#ArialMT-8722"/>
       <use x="58.398438" xlink:href="#ArialMT-54"/>
       <use x="114.013672" xlink:href="#ArialMT-48"/>
      </g>
     </g>
    </g>
    <g id="ytick_4">
     <g id="line2d_12">
      <path clip-path="url(#p7f3d6af386)" d="M 135 382.674314 
L 972 382.674314 
" style="fill:none;stroke:#ffffff;stroke-linecap:round;"/>
     </g>
     <g id="text_12">
      <!-- −40 -->
      <g style="fill:#262626;" transform="translate(78.853125 392.516306)scale(0.275 -0.275)">
       <use xlink:href="#ArialMT-8722"/>
       <use x="58.398438" xlink:href="#ArialMT-52"/>
       <use x="114.013672" xlink:href="#ArialMT-48"/>
      </g>
     </g>
    </g>
    <g id="ytick_5">
     <g id="line2d_13">
      <path clip-path="url(#p7f3d6af386)" d="M 135 306.41591 
L 972 306.41591 
" style="fill:none;stroke:#ffffff;stroke-linecap:round;"/>
     </g>
     <g id="text_13">
      <!-- −20 -->
      <g style="fill:#262626;" transform="translate(78.853125 316.257902)scale(0.275 -0.275)">
       <use xlink:href="#ArialMT-8722"/>
       <use x="58.398438" xlink:href="#ArialMT-50"/>
       <use x="114.013672" xlink:href="#ArialMT-48"/>
      </g>
     </g>
    </g>
    <g id="ytick_6">
     <g id="line2d_14">
      <path clip-path="url(#p7f3d6af386)" d="M 135 230.157506 
L 972 230.157506 
" style="fill:none;stroke:#ffffff;stroke-linecap:round;"/>
     </g>
     <g id="text_14">
      <!-- 0 -->
      <g style="fill:#262626;" transform="translate(110.207422 239.999499)scale(0.275 -0.275)">
       <use xlink:href="#ArialMT-48"/>
      </g>
     </g>
    </g>
    <g id="ytick_7">
     <g id="line2d_15">
      <path clip-path="url(#p7f3d6af386)" d="M 135 153.899103 
L 972 153.899103 
" style="fill:none;stroke:#ffffff;stroke-linecap:round;"/>
     </g>
     <g id="text_15">
      <!-- 20 -->
      <g style="fill:#262626;" transform="translate(94.914844 163.741095)scale(0.275 -0.275)">
       <use xlink:href="#ArialMT-50"/>
       <use x="55.615234" xlink:href="#ArialMT-48"/>
      </g>
     </g>
    </g>
   </g>
   <g id="line2d_16">
    <path clip-path="url(#p7f3d6af386)" d="M 173.045455 228.239707 
L 174.068182 228.967307 
L 175.090909 224.226455 
L 176.113636 204.235391 
L 177.136364 230.24879 
L 178.159091 228.646667 
L 179.181818 223.253242 
L 180.204545 221.015796 
L 181.227273 228.937029 
L 182.25 235.410215 
L 183.272727 230.112604 
L 184.295455 228.822775 
L 185.318182 228.222327 
L 186.340909 227.349437 
L 187.363636 223.85264 
L 188.386364 227.967839 
L 189.409091 227.592102 
L 190.431818 230.109458 
L 191.454545 228.74607 
L 192.477273 224.290595 
L 193.5 224.72739 
L 194.522727 226.722326 
L 195.545455 226.954306 
L 196.568182 227.8367 
L 197.590909 228.937227 
L 198.613636 229.662963 
L 199.636364 229.842293 
L 200.659091 229.757938 
L 201.681818 232.324589 
L 202.704545 228.904185 
L 203.727273 230.709038 
L 204.75 227.936183 
L 205.772727 229.68832 
L 206.795455 230.869719 
L 207.818182 230.196158 
L 208.840909 221.894427 
L 209.863636 226.396249 
L 210.886364 225.152749 
L 211.909091 224.278201 
L 212.931818 605.290909 
L 213.954545 229.993881 
L 214.977273 231.98385 
L 216 230.344102 
L 217.022727 221.201549 
L 218.045455 232.10591 
L 219.068182 232.937862 
L 220.090909 228.413499 
L 223.159091 232.907268 
L 224.181818 230.573485 
L 225.204545 233.985083 
L 226.227273 227.312002 
L 227.25 230.029737 
L 228.272727 229.801699 
L 229.295455 230.616588 
L 230.318182 229.993647 
L 231.340909 230.296229 
L 232.363636 222.530492 
L 233.386364 234.160812 
L 234.409091 229.05008 
L 235.431818 228.383526 
L 236.454545 230.226542 
L 237.477273 230.384178 
L 238.5 225.727069 
L 239.522727 230.919856 
L 240.545455 228.127099 
L 241.568182 192.873144 
L 242.590909 228.295831 
L 243.613636 231.695389 
L 244.636364 277.874189 
L 245.659091 220.483304 
L 246.681818 228.045565 
L 247.704545 230.765714 
L 248.727273 228.580505 
L 249.75 228.975352 
L 250.772727 228.165899 
L 251.795455 231.262829 
L 252.818182 265.770713 
L 253.840909 230.646057 
L 254.863636 231.687012 
L 255.886364 230.521963 
L 256.909091 227.805672 
L 257.931818 236.85486 
L 258.954545 221.117369 
L 259.977273 226.354473 
L 262.022727 234.721988 
L 263.045455 250.068786 
L 264.068182 238.591812 
L 265.090909 232.747849 
L 266.113636 234.75966 
L 267.136364 226.231954 
L 268.159091 227.664435 
L 269.181818 232.777942 
L 270.204545 230.560726 
L 271.227273 220.987465 
L 272.25 231.878127 
L 273.272727 227.273685 
L 274.295455 228.02927 
L 275.318182 228.603184 
L 276.340909 227.496823 
L 277.363636 230.234988 
L 278.386364 231.065685 
L 279.409091 229.328901 
L 280.431818 201.744129 
L 281.454545 231.70193 
L 282.477273 230.340696 
L 283.5 231.179158 
L 284.522727 230.182962 
L 285.545455 227.393752 
L 286.568182 231.237158 
L 287.590909 260.789113 
L 288.613636 232.38175 
L 289.636364 229.873215 
L 290.659091 251.613832 
L 291.681818 229.656034 
L 292.704545 227.647167 
L 293.727273 226.263476 
L 294.75 218.720016 
L 295.772727 228.518155 
L 296.795455 201.22954 
L 297.818182 227.889465 
L 298.840909 227.836881 
L 299.863636 229.54514 
L 300.886364 234.568387 
L 301.909091 224.627492 
L 302.931818 229.387109 
L 303.954545 228.600995 
L 304.977273 228.349583 
L 306 230.810206 
L 307.022727 224.874681 
L 308.045455 248.608499 
L 309.068182 230.539649 
L 310.090909 227.768961 
L 311.113636 227.753043 
L 312.136364 230.448292 
L 313.159091 227.92678 
L 314.181818 231.381544 
L 315.204545 225.512341 
L 316.227273 230.33411 
L 317.25 229.60817 
L 319.295455 227.951127 
L 320.318182 227.958528 
L 321.340909 224.887926 
L 322.363636 230.835922 
L 323.386364 227.969951 
L 324.409091 231.243834 
L 325.431818 208.390908 
L 326.454545 230.023288 
L 327.477273 233.970852 
L 328.5 231.860362 
L 329.522727 227.044001 
L 330.545455 229.331533 
L 331.568182 232.004007 
L 332.590909 230.711271 
L 333.613636 221.084799 
L 334.636364 226.926411 
L 335.659091 227.585165 
L 336.681818 228.682388 
L 337.704545 223.295399 
L 338.727273 227.565668 
L 339.75 214.249141 
L 340.772727 229.250489 
L 341.795455 231.102368 
L 342.818182 223.602053 
L 343.840909 228.41313 
L 344.863636 228.430709 
L 345.886364 221.66078 
L 346.909091 225.683684 
L 347.931818 226.453789 
L 348.954545 229.071968 
L 349.977273 229.34236 
L 351 227.977384 
L 352.022727 228.358895 
L 353.045455 217.210065 
L 354.068182 228.786718 
L 355.090909 230.758128 
L 356.113636 232.298646 
L 357.136364 230.249341 
L 358.159091 222.815152 
L 359.181818 227.990282 
L 360.204545 236.453521 
L 361.227273 229.981077 
L 362.25 229.335097 
L 363.272727 170.44711 
L 364.295455 229.341955 
L 365.318182 229.236992 
L 366.340909 228.01852 
L 367.363636 233.518536 
L 368.386364 233.983066 
L 369.409091 229.014061 
L 370.431818 230.709887 
L 371.454545 231.174113 
L 372.477273 228.982391 
L 373.5 230.795869 
L 374.522727 228.020534 
L 375.545455 229.8459 
L 376.568182 228.59559 
L 377.590909 231.282267 
L 378.613636 229.976172 
L 379.636364 231.377503 
L 380.659091 227.410873 
L 381.681818 229.832631 
L 382.704545 232.797295 
L 383.727273 231.704654 
L 384.75 230.177196 
L 385.772727 230.304255 
L 386.795455 237.407698 
L 387.818182 224.172744 
L 388.840909 229.271194 
L 389.863636 223.605429 
L 390.886364 227.055915 
L 391.909091 222.389583 
L 392.931818 230.900219 
L 393.954545 225.477805 
L 394.977273 221.798011 
L 396 222.502602 
L 397.022727 228.593585 
L 398.045455 202.453855 
L 399.068182 225.051291 
L 400.090909 231.682864 
L 401.113636 229.686058 
L 402.136364 228.719355 
L 403.159091 232.950188 
L 404.181818 227.445032 
L 405.204545 226.974731 
L 406.227273 230.719701 
L 407.25 244.729086 
L 408.272727 231.33593 
L 409.295455 231.621182 
L 410.318182 230.426603 
L 411.340909 237.384802 
L 412.363636 220.446883 
L 413.386364 232.389039 
L 414.409091 229.757466 
L 415.431818 222.034054 
L 416.454545 229.302556 
L 418.5 233.048122 
L 419.522727 220.609217 
L 420.545455 227.003769 
L 421.568182 226.387587 
L 422.590909 231.022458 
L 423.613636 228.31761 
L 424.636364 234.014946 
L 425.659091 232.610559 
L 426.681818 226.391903 
L 427.704545 230.513174 
L 428.727273 227.76699 
L 429.75 219.33689 
L 430.772727 277.498545 
L 431.795455 226.503188 
L 432.818182 214.678665 
L 433.840909 239.167863 
L 434.863636 207.756678 
L 435.886364 231.521363 
L 436.909091 227.795957 
L 437.931818 226.914355 
L 438.954545 223.440751 
L 439.977273 228.825526 
L 441 228.645646 
L 442.022727 230.789673 
L 443.045455 226.351809 
L 444.068182 221.273398 
L 445.090909 228.507289 
L 446.113636 229.283712 
L 447.136364 227.746863 
L 448.159091 226.790374 
L 449.181818 231.50178 
L 450.204545 227.205364 
L 451.227273 227.964009 
L 452.25 225.627502 
L 453.272727 230.814551 
L 454.295455 229.615672 
L 455.318182 177.897843 
L 456.340909 227.632184 
L 457.363636 232.872099 
L 458.386364 228.469918 
L 459.409091 228.325193 
L 460.431818 231.721699 
L 461.454545 230.650806 
L 462.477273 227.380954 
L 463.5 228.583989 
L 464.522727 229.133913 
L 465.545455 223.941965 
L 466.568182 229.358844 
L 467.590909 228.120875 
L 468.613636 231.645013 
L 469.636364 229.697913 
L 470.659091 230.553552 
L 471.681818 228.477872 
L 472.704545 231.379213 
L 473.727273 230.501714 
L 474.75 233.872126 
L 475.772727 229.58755 
L 476.795455 247.07452 
L 477.818182 225.884833 
L 478.840909 229.942353 
L 479.863636 232.994328 
L 480.886364 230.159278 
L 481.909091 224.562359 
L 482.931818 223.701664 
L 483.954545 231.320742 
L 484.977273 227.641025 
L 486 229.637631 
L 487.022727 229.058967 
L 488.045455 224.101358 
L 489.068182 232.608052 
L 490.090909 263.189073 
L 492.136364 202.067498 
L 493.159091 227.429737 
L 494.181818 227.393752 
L 495.204545 231.510982 
L 496.227273 231.113548 
L 497.25 225.492459 
L 498.272727 230.269809 
L 499.295455 236.359627 
L 500.318182 225.445979 
L 501.340909 229.626217 
L 502.363636 226.529036 
L 503.386364 277.623113 
L 504.409091 225.408195 
L 505.431818 229.649797 
L 506.454545 231.25155 
L 507.477273 219.305325 
L 508.5 225.24665 
L 509.522727 226.107193 
L 510.545455 223.641711 
L 511.568182 229.592277 
L 512.590909 231.165385 
L 513.613636 235.099422 
L 514.636364 260.807067 
L 515.659091 236.789181 
L 516.681818 229.209146 
L 517.704545 233.820924 
L 518.727273 229.091443 
L 519.75 230.506573 
L 520.772727 225.274713 
L 521.795455 223.839991 
L 522.818182 233.506551 
L 523.840909 230.275189 
L 524.863636 228.844417 
L 525.886364 228.675289 
L 526.909091 209.603507 
L 527.931818 220.862206 
L 528.954545 229.254315 
L 529.977273 230.080661 
L 531 217.18919 
L 532.022727 264.035082 
L 533.045455 223.847814 
L 534.068182 222.732395 
L 535.090909 232.637499 
L 536.113636 248.143951 
L 537.136364 229.816698 
L 538.159091 228.160286 
L 539.181818 217.708427 
L 540.204545 227.532511 
L 541.227273 238.647889 
L 542.25 224.092471 
L 543.272727 231.051926 
L 544.295455 230.470964 
L 545.318182 213.893365 
L 546.340909 230.942281 
L 547.363636 227.127465 
L 548.386364 226.842881 
L 549.409091 231.052851 
L 550.431818 231.093882 
L 551.454545 228.24343 
L 552.477273 227.906316 
L 553.5 224.964271 
L 554.522727 223.732768 
L 555.545455 227.483757 
L 556.568182 230.037497 
L 557.590909 231.173887 
L 558.613636 225.626715 
L 559.636364 256.7161 
L 560.659091 217.380594 
L 561.681818 233.451739 
L 562.704545 225.819459 
L 563.727273 224.445318 
L 564.75 237.941934 
L 565.772727 229.007244 
L 566.795455 232.096768 
L 567.818182 232.029105 
L 568.840909 228.112001 
L 569.863636 229.141495 
L 570.886364 232.626884 
L 571.909091 228.500646 
L 572.931818 226.331229 
L 573.954545 228.358976 
L 574.977273 231.348735 
L 576 227.550708 
L 577.022727 233.400209 
L 578.045455 226.903291 
L 579.068182 231.131692 
L 580.090909 230.962185 
L 581.113636 201.287755 
L 582.136364 226.663781 
L 583.159091 229.666595 
L 584.181818 229.28534 
L 586.227273 229.885226 
L 587.25 227.598701 
L 588.272727 228.021731 
L 589.295455 228.233366 
L 590.318182 229.874023 
L 591.340909 228.32472 
L 592.363636 229.008516 
L 593.386364 225.314012 
L 594.409091 226.642201 
L 595.431818 230.027956 
L 596.454545 225.2251 
L 597.477273 230.444895 
L 598.5 240.850956 
L 599.522727 291.318957 
L 600.545455 229.399737 
L 601.568182 217.604211 
L 602.590909 229.943512 
L 603.613636 226.589229 
L 604.636364 201.654925 
L 605.659091 229.396045 
L 606.681818 232.999552 
L 607.704545 230.113762 
L 608.727273 212.151288 
L 609.75 237.286402 
L 610.772727 229.926874 
L 611.795455 228.153681 
L 612.818182 230.280744 
L 613.840909 234.135127 
L 614.863636 230.486346 
L 615.886364 237.878548 
L 616.909091 228.992603 
L 617.931818 228.601343 
L 618.954545 228.862282 
L 619.977273 228.025658 
L 621 221.754772 
L 622.022727 229.546538 
L 623.045455 219.602037 
L 624.068182 231.154886 
L 625.090909 230.428621 
L 626.113636 227.616547 
L 627.136364 227.467601 
L 628.159091 221.238993 
L 629.181818 224.181848 
L 630.204545 232.675398 
L 631.227273 228.273436 
L 632.25 232.288767 
L 633.272727 225.351081 
L 634.295455 232.025057 
L 635.318182 190.42372 
L 636.340909 228.524877 
L 637.363636 218.305305 
L 638.386364 230.442683 
L 640.431818 228.420665 
L 641.454545 230.628288 
L 642.477273 231.88096 
L 643.5 224.878375 
L 644.522727 230.155854 
L 645.545455 231.20493 
L 646.568182 231.016097 
L 647.590909 217.575326 
L 648.613636 229.745952 
L 649.636364 231.335935 
L 650.659091 228.299133 
L 651.681818 227.837715 
L 652.704545 230.202821 
L 653.727273 225.518414 
L 654.75 231.701938 
L 655.772727 225.724671 
L 656.795455 228.54735 
L 657.818182 223.391374 
L 658.840909 227.441886 
L 659.863636 111.109091 
L 660.886364 230.406549 
L 661.909091 228.605315 
L 662.931818 230.964729 
L 663.954545 224.35583 
L 664.977273 225.686853 
L 666 229.374088 
L 667.022727 230.434804 
L 668.045455 227.627732 
L 669.068182 227.688255 
L 670.090909 213.475866 
L 671.113636 233.214966 
L 672.136364 228.982769 
L 673.159091 226.271363 
L 674.181818 226.021249 
L 675.204545 230.606187 
L 676.227273 227.769205 
L 677.25 222.951014 
L 678.272727 219.560334 
L 679.295455 227.622973 
L 680.318182 221.173482 
L 681.340909 228.960886 
L 682.363636 231.4873 
L 683.386364 233.238162 
L 684.409091 226.840809 
L 685.431818 230.786766 
L 686.454545 226.386905 
L 687.477273 230.576533 
L 688.5 222.664385 
L 689.522727 229.319123 
L 690.545455 229.696784 
L 691.568182 225.2432 
L 692.590909 228.820462 
L 693.613636 257.96168 
L 694.636364 227.567738 
L 695.659091 363.205185 
L 696.681818 224.034353 
L 697.704545 231.062889 
L 698.727273 231.5241 
L 699.75 227.266479 
L 700.772727 230.790536 
L 701.795455 221.744282 
L 702.818182 231.760672 
L 703.840909 227.749674 
L 704.863636 227.055184 
L 705.886364 225.964266 
L 706.909091 231.069979 
L 707.931818 235.56002 
L 708.954545 254.459664 
L 709.977273 230.637733 
L 711 227.39163 
L 712.022727 230.891103 
L 713.045455 189.946555 
L 714.068182 228.989746 
L 715.090909 243.87538 
L 716.113636 226.911103 
L 717.136364 226.745424 
L 718.159091 232.579856 
L 719.181818 225.416598 
L 720.204545 228.877748 
L 721.227273 266.630611 
L 722.25 233.519716 
L 723.272727 228.64369 
L 724.295455 202.873834 
L 725.318182 230.506973 
L 726.340909 228.639452 
L 727.363636 231.594817 
L 728.386364 219.871341 
L 729.409091 228.17715 
L 730.431818 229.167077 
L 731.454545 226.522276 
L 732.477273 229.272296 
L 733.5 205.834906 
L 734.522727 228.096265 
L 735.545455 234.805795 
L 736.568182 226.501416 
L 737.590909 225.75178 
L 738.613636 231.013385 
L 739.636364 229.150305 
L 740.659091 230.734666 
L 741.681818 225.352236 
L 742.704545 226.442391 
L 743.727273 219.089719 
L 744.75 224.767396 
L 745.772727 229.062076 
L 746.795455 206.846707 
L 747.818182 228.617915 
L 748.840909 228.606551 
L 749.863636 226.791078 
L 750.886364 221.273956 
L 751.909091 231.299958 
L 752.931818 225.36014 
L 753.954545 229.544022 
L 754.977273 224.867434 
L 756 231.012243 
L 757.022727 226.592926 
L 758.045455 230.061987 
L 759.068182 230.473225 
L 760.090909 231.08607 
L 761.113636 228.559619 
L 762.136364 223.565766 
L 763.159091 230.932794 
L 764.181818 230.307225 
L 765.204545 239.0198 
L 766.227273 231.073695 
L 767.25 232.258235 
L 768.272727 228.343423 
L 769.295455 229.242482 
L 770.318182 232.416667 
L 771.340909 229.152121 
L 772.363636 273.653098 
L 773.386364 230.736742 
L 774.409091 229.172511 
L 775.431818 228.631238 
L 776.454545 241.501678 
L 777.477273 193.570254 
L 778.5 230.138981 
L 779.522727 248.983953 
L 780.545455 226.166547 
L 781.568182 230.095608 
L 782.590909 228.432325 
L 783.613636 225.921877 
L 784.636364 225.451236 
L 785.659091 229.459535 
L 786.681818 230.327361 
L 787.704545 224.682681 
L 788.727273 227.529733 
L 789.75 226.085721 
L 790.772727 230.500385 
L 792.818182 224.354378 
L 794.863636 233.196933 
L 795.886364 229.686622 
L 796.909091 230.5139 
L 797.931818 252.499355 
L 798.954545 232.752976 
L 799.977273 244.052503 
L 801 227.541149 
L 802.022727 230.230007 
L 803.045455 228.087941 
L 804.068182 230.162163 
L 805.090909 226.661965 
L 806.113636 205.431214 
L 807.136364 223.660693 
L 808.159091 228.405572 
L 809.181818 236.765641 
L 810.204545 227.49241 
L 811.227273 225.554658 
L 812.25 228.568467 
L 813.272727 230.451219 
L 814.295455 216.213413 
L 815.318182 224.760633 
L 816.340909 200.466423 
L 817.363636 227.99058 
L 818.386364 238.570246 
L 819.409091 233.887504 
L 820.431818 235.708958 
L 821.454545 227.859545 
L 822.477273 241.706748 
L 823.5 232.273011 
L 824.522727 226.67534 
L 825.545455 231.691259 
L 826.568182 228.914961 
L 827.590909 224.638351 
L 828.613636 239.099115 
L 829.636364 216.170295 
L 830.659091 234.590842 
L 831.681818 232.30423 
L 832.704545 227.571066 
L 833.727273 230.476433 
L 834.75 231.975648 
L 835.772727 234.200112 
L 836.795455 183.8651 
L 837.818182 235.878433 
L 838.840909 230.172495 
L 839.863636 222.879529 
L 840.886364 227.797931 
L 841.909091 231.686594 
L 842.931818 231.638987 
L 843.954545 228.882965 
L 844.977273 231.471433 
L 846 222.956629 
L 847.022727 229.697122 
L 848.045455 233.949721 
L 849.068182 225.074905 
L 850.090909 222.064584 
L 851.113636 227.501766 
L 852.136364 226.913062 
L 853.159091 232.311701 
L 854.181818 233.025167 
L 855.204545 227.584803 
L 856.227273 228.378539 
L 857.25 265.861493 
L 858.272727 229.162322 
L 859.295455 231.185659 
L 860.318182 240.816804 
L 861.340909 207.778195 
L 862.363636 228.166315 
L 863.386364 214.51678 
L 864.409091 229.032122 
L 865.431818 232.064413 
L 866.454545 253.137881 
L 867.477273 228.005231 
L 868.5 227.396442 
L 869.522727 228.702187 
L 870.545455 230.655066 
L 871.568182 231.974554 
L 872.590909 228.661217 
L 873.613636 227.677041 
L 874.636364 228.614457 
L 875.659091 232.10778 
L 876.681818 232.333291 
L 877.704545 239.889172 
L 878.727273 228.083244 
L 879.75 228.118471 
L 880.772727 188.139926 
L 881.795455 230.640509 
L 882.818182 230.11835 
L 883.840909 231.856296 
L 884.863636 224.704732 
L 885.886364 227.635615 
L 886.909091 228.93277 
L 887.931818 232.125156 
L 888.954545 186.575125 
L 889.977273 204.053553 
L 891 204.80789 
L 892.022727 223.481466 
L 893.045455 229.777261 
L 894.068182 233.695857 
L 895.090909 227.095285 
L 896.113636 228.421849 
L 898.159091 244.306791 
L 899.181818 226.746089 
L 900.204545 227.005962 
L 901.227273 227.028543 
L 902.25 226.802639 
L 903.272727 228.047392 
L 904.295455 229.991525 
L 905.318182 228.593593 
L 906.340909 231.083574 
L 907.363636 223.451805 
L 908.386364 228.816875 
L 909.409091 231.052499 
L 910.431818 226.974142 
L 911.454545 230.3789 
L 912.477273 230.245412 
L 913.5 229.331328 
L 914.522727 228.919069 
L 915.545455 233.172733 
L 916.568182 206.96965 
L 917.590909 230.240091 
L 918.613636 231.385025 
L 919.636364 226.077805 
L 920.659091 226.583421 
L 921.681818 230.877 
L 922.704545 217.153537 
L 923.727273 209.118555 
L 924.75 225.53689 
L 925.772727 230.080849 
L 926.795455 228.067279 
L 927.818182 229.460603 
L 928.840909 234.880479 
L 929.863636 215.958705 
L 930.886364 223.292251 
L 931.909091 228.675151 
L 932.931818 229.307104 
L 933.954545 227.439317 
L 933.954545 227.439317 
" style="fill:none;stroke:#4c72b0;stroke-linecap:round;stroke-width:1.5;"/>
   </g>
   <g id="patch_3">
    <path d="M 135 630 
L 135 86.4 
" style="fill:none;stroke:#ffffff;stroke-linecap:square;stroke-linejoin:miter;stroke-width:1.25;"/>
   </g>
   <g id="patch_4">
    <path d="M 972 630 
L 972 86.4 
" style="fill:none;stroke:#ffffff;stroke-linecap:square;stroke-linejoin:miter;stroke-width:1.25;"/>
   </g>
   <g id="patch_5">
    <path d="M 135 630 
L 972 630 
" style="fill:none;stroke:#ffffff;stroke-linecap:square;stroke-linejoin:miter;stroke-width:1.25;"/>
   </g>
   <g id="patch_6">
    <path d="M 135 86.4 
L 972 86.4 
" style="fill:none;stroke:#ffffff;stroke-linecap:square;stroke-linejoin:miter;stroke-width:1.25;"/>
   </g>
  </g>
 </g>
 <defs>
  <clipPath id="p7f3d6af386">
   <rect height="543.6" width="837" x="135" y="86.4"/>
  </clipPath>
 </defs>
</svg>
