<?xml version="1.0" encoding="utf-8" standalone="no"?>
<!DOCTYPE svg PUBLIC "-//W3C//DTD SVG 1.1//EN"
  "http://www.w3.org/Graphics/SVG/1.1/DTD/svg11.dtd">
<!-- Created with matplotlib (https://matplotlib.org/) -->
<svg height="720pt" version="1.1" viewBox="0 0 1080 720" width="1080pt" xmlns="http://www.w3.org/2000/svg" xmlns:xlink="http://www.w3.org/1999/xlink">
 <defs>
  <style type="text/css">
*{stroke-linecap:butt;stroke-linejoin:round;}
  </style>
 </defs>
 <g id="figure_1">
  <g id="patch_1">
   <path d="M 0 720 
L 1080 720 
L 1080 0 
L 0 0 
z
" style="fill:#ffffff;"/>
  </g>
  <g id="axes_1">
   <g id="patch_2">
    <path d="M 135 630 
L 972 630 
L 972 86.4 
L 135 86.4 
z
" style="fill:#eaeaf2;"/>
   </g>
   <g id="matplotlib.axis_1">
    <g id="xtick_1">
     <g id="line2d_1">
      <path clip-path="url(#p01bb86ace0)" d="M 174.857143 630 
L 174.857143 86.4 
" style="fill:none;stroke:#ffffff;stroke-linecap:round;"/>
     </g>
     <g id="text_1">
      <!-- $0.00 -->
      <defs>
       <path d="M 24.90625 -10.296875 
L 24.90625 -1.515625 
Q 18.3125 -0.6875 14.1875 1.4375 
Q 10.0625 3.5625 7.046875 8.296875 
Q 4.046875 13.03125 3.5625 19.875 
L 12.40625 21.53125 
Q 13.421875 14.453125 16.015625 11.140625 
Q 19.734375 6.453125 24.90625 5.90625 
L 24.90625 33.890625 
Q 19.484375 34.90625 13.8125 38.09375 
Q 9.625 40.4375 7.34375 44.578125 
Q 5.078125 48.734375 5.078125 54 
Q 5.078125 63.375 11.71875 69.1875 
Q 16.15625 73.09375 24.90625 73.96875 
L 24.90625 78.171875 
L 30.078125 78.171875 
L 30.078125 73.96875 
Q 37.75 73.25 42.234375 69.484375 
Q 48 64.703125 49.171875 56.34375 
L 40.09375 54.984375 
Q 39.3125 60.15625 36.84375 62.90625 
Q 34.375 65.671875 30.078125 66.546875 
L 30.078125 41.21875 
Q 36.71875 39.546875 38.875 38.625 
Q 42.96875 36.8125 45.546875 34.21875 
Q 48.140625 31.640625 49.53125 28.078125 
Q 50.921875 24.515625 50.921875 20.359375 
Q 50.921875 11.234375 45.109375 5.125 
Q 39.3125 -0.984375 30.078125 -1.421875 
L 30.078125 -10.296875 
z
M 24.90625 66.65625 
Q 19.78125 65.875 16.828125 62.546875 
Q 13.875 59.234375 13.875 54.6875 
Q 13.875 50.203125 16.375 47.171875 
Q 18.890625 44.140625 24.90625 42.328125 
z
M 30.078125 5.90625 
Q 35.203125 6.546875 38.546875 10.34375 
Q 41.890625 14.15625 41.890625 19.78125 
Q 41.890625 24.5625 39.515625 27.46875 
Q 37.15625 30.375 30.078125 32.671875 
z
" id="ArialMT-36"/>
       <path d="M 4.15625 35.296875 
Q 4.15625 48 6.765625 55.734375 
Q 9.375 63.484375 14.515625 67.671875 
Q 19.671875 71.875 27.484375 71.875 
Q 33.25 71.875 37.59375 69.546875 
Q 41.9375 67.234375 44.765625 62.859375 
Q 47.609375 58.5 49.21875 52.21875 
Q 50.828125 45.953125 50.828125 35.296875 
Q 50.828125 22.703125 48.234375 14.96875 
Q 45.65625 7.234375 40.5 3 
Q 35.359375 -1.21875 27.484375 -1.21875 
Q 17.140625 -1.21875 11.234375 6.203125 
Q 4.15625 15.140625 4.15625 35.296875 
z
M 13.1875 35.296875 
Q 13.1875 17.671875 17.3125 11.828125 
Q 21.4375 6 27.484375 6 
Q 33.546875 6 37.671875 11.859375 
Q 41.796875 17.71875 41.796875 35.296875 
Q 41.796875 52.984375 37.671875 58.78125 
Q 33.546875 64.59375 27.390625 64.59375 
Q 21.34375 64.59375 17.71875 59.46875 
Q 13.1875 52.9375 13.1875 35.296875 
z
" id="ArialMT-48"/>
       <path d="M 9.078125 0 
L 9.078125 10.015625 
L 19.09375 10.015625 
L 19.09375 0 
z
" id="ArialMT-46"/>
      </defs>
      <g style="fill:#262626;" transform="translate(140.452065 659.183984)scale(0.275 -0.275)">
       <use xlink:href="#ArialMT-36"/>
       <use x="55.615234" xlink:href="#ArialMT-48"/>
       <use x="111.230469" xlink:href="#ArialMT-46"/>
       <use x="139.013672" xlink:href="#ArialMT-48"/>
       <use x="194.628906" xlink:href="#ArialMT-48"/>
      </g>
     </g>
    </g>
    <g id="xtick_2">
     <g id="line2d_2">
      <path clip-path="url(#p01bb86ace0)" d="M 274.5 630 
L 274.5 86.4 
" style="fill:none;stroke:#ffffff;stroke-linecap:round;"/>
     </g>
     <g id="text_2">
      <!-- $2.50 -->
      <defs>
       <path d="M 50.34375 8.453125 
L 50.34375 0 
L 3.03125 0 
Q 2.9375 3.171875 4.046875 6.109375 
Q 5.859375 10.9375 9.828125 15.625 
Q 13.8125 20.3125 21.34375 26.46875 
Q 33.015625 36.03125 37.109375 41.625 
Q 41.21875 47.21875 41.21875 52.203125 
Q 41.21875 57.421875 37.46875 61 
Q 33.734375 64.59375 27.734375 64.59375 
Q 21.390625 64.59375 17.578125 60.78125 
Q 13.765625 56.984375 13.71875 50.25 
L 4.6875 51.171875 
Q 5.609375 61.28125 11.65625 66.578125 
Q 17.71875 71.875 27.9375 71.875 
Q 38.234375 71.875 44.234375 66.15625 
Q 50.25 60.453125 50.25 52 
Q 50.25 47.703125 48.484375 43.546875 
Q 46.734375 39.40625 42.65625 34.8125 
Q 38.578125 30.21875 29.109375 22.21875 
Q 21.1875 15.578125 18.9375 13.203125 
Q 16.703125 10.84375 15.234375 8.453125 
z
" id="ArialMT-50"/>
       <path d="M 4.15625 18.75 
L 13.375 19.53125 
Q 14.40625 12.796875 18.140625 9.390625 
Q 21.875 6 27.15625 6 
Q 33.5 6 37.890625 10.78125 
Q 42.28125 15.578125 42.28125 23.484375 
Q 42.28125 31 38.0625 35.34375 
Q 33.84375 39.703125 27 39.703125 
Q 22.75 39.703125 19.328125 37.765625 
Q 15.921875 35.84375 13.96875 32.765625 
L 5.71875 33.84375 
L 12.640625 70.609375 
L 48.25 70.609375 
L 48.25 62.203125 
L 19.671875 62.203125 
L 15.828125 42.96875 
Q 22.265625 47.46875 29.34375 47.46875 
Q 38.71875 47.46875 45.15625 40.96875 
Q 51.609375 34.46875 51.609375 24.265625 
Q 51.609375 14.546875 45.953125 7.46875 
Q 39.0625 -1.21875 27.15625 -1.21875 
Q 17.390625 -1.21875 11.203125 4.25 
Q 5.03125 9.71875 4.15625 18.75 
z
" id="ArialMT-53"/>
      </defs>
      <g style="fill:#262626;" transform="translate(240.094922 659.183984)scale(0.275 -0.275)">
       <use xlink:href="#ArialMT-36"/>
       <use x="55.615234" xlink:href="#ArialMT-50"/>
       <use x="111.230469" xlink:href="#ArialMT-46"/>
       <use x="139.013672" xlink:href="#ArialMT-53"/>
       <use x="194.628906" xlink:href="#ArialMT-48"/>
      </g>
     </g>
    </g>
    <g id="xtick_3">
     <g id="line2d_3">
      <path clip-path="url(#p01bb86ace0)" d="M 374.142857 630 
L 374.142857 86.4 
" style="fill:none;stroke:#ffffff;stroke-linecap:round;"/>
     </g>
     <g id="text_3">
      <!-- $5.00 -->
      <g style="fill:#262626;" transform="translate(339.737779 659.183984)scale(0.275 -0.275)">
       <use xlink:href="#ArialMT-36"/>
       <use x="55.615234" xlink:href="#ArialMT-53"/>
       <use x="111.230469" xlink:href="#ArialMT-46"/>
       <use x="139.013672" xlink:href="#ArialMT-48"/>
       <use x="194.628906" xlink:href="#ArialMT-48"/>
      </g>
     </g>
    </g>
    <g id="xtick_4">
     <g id="line2d_4">
      <path clip-path="url(#p01bb86ace0)" d="M 473.785714 630 
L 473.785714 86.4 
" style="fill:none;stroke:#ffffff;stroke-linecap:round;"/>
     </g>
     <g id="text_4">
      <!-- $7.50 -->
      <defs>
       <path d="M 4.734375 62.203125 
L 4.734375 70.65625 
L 51.078125 70.65625 
L 51.078125 63.8125 
Q 44.234375 56.546875 37.515625 44.484375 
Q 30.8125 32.421875 27.15625 19.671875 
Q 24.515625 10.6875 23.78125 0 
L 14.75 0 
Q 14.890625 8.453125 18.0625 20.40625 
Q 21.234375 32.375 27.171875 43.484375 
Q 33.109375 54.59375 39.796875 62.203125 
z
" id="ArialMT-55"/>
      </defs>
      <g style="fill:#262626;" transform="translate(439.380636 659.183984)scale(0.275 -0.275)">
       <use xlink:href="#ArialMT-36"/>
       <use x="55.615234" xlink:href="#ArialMT-55"/>
       <use x="111.230469" xlink:href="#ArialMT-46"/>
       <use x="139.013672" xlink:href="#ArialMT-53"/>
       <use x="194.628906" xlink:href="#ArialMT-48"/>
      </g>
     </g>
    </g>
    <g id="xtick_5">
     <g id="line2d_5">
      <path clip-path="url(#p01bb86ace0)" d="M 573.428571 630 
L 573.428571 86.4 
" style="fill:none;stroke:#ffffff;stroke-linecap:round;"/>
     </g>
     <g id="text_5">
      <!-- $10.00 -->
      <defs>
       <path d="M 37.25 0 
L 28.46875 0 
L 28.46875 56 
Q 25.296875 52.984375 20.140625 49.953125 
Q 14.984375 46.921875 10.890625 45.40625 
L 10.890625 53.90625 
Q 18.265625 57.375 23.78125 62.296875 
Q 29.296875 67.234375 31.59375 71.875 
L 37.25 71.875 
z
" id="ArialMT-49"/>
      </defs>
      <g style="fill:#262626;" transform="translate(531.377204 659.183984)scale(0.275 -0.275)">
       <use xlink:href="#ArialMT-36"/>
       <use x="55.615234" xlink:href="#ArialMT-49"/>
       <use x="111.230469" xlink:href="#ArialMT-48"/>
       <use x="166.845703" xlink:href="#ArialMT-46"/>
       <use x="194.628906" xlink:href="#ArialMT-48"/>
       <use x="250.244141" xlink:href="#ArialMT-48"/>
      </g>
     </g>
    </g>
    <g id="xtick_6">
     <g id="line2d_6">
      <path clip-path="url(#p01bb86ace0)" d="M 673.071429 630 
L 673.071429 86.4 
" style="fill:none;stroke:#ffffff;stroke-linecap:round;"/>
     </g>
     <g id="text_6">
      <!-- $12.50 -->
      <g style="fill:#262626;" transform="translate(631.020061 659.183984)scale(0.275 -0.275)">
       <use xlink:href="#ArialMT-36"/>
       <use x="55.615234" xlink:href="#ArialMT-49"/>
       <use x="111.230469" xlink:href="#ArialMT-50"/>
       <use x="166.845703" xlink:href="#ArialMT-46"/>
       <use x="194.628906" xlink:href="#ArialMT-53"/>
       <use x="250.244141" xlink:href="#ArialMT-48"/>
      </g>
     </g>
    </g>
    <g id="xtick_7">
     <g id="line2d_7">
      <path clip-path="url(#p01bb86ace0)" d="M 772.714286 630 
L 772.714286 86.4 
" style="fill:none;stroke:#ffffff;stroke-linecap:round;"/>
     </g>
     <g id="text_7">
      <!-- $15.00 -->
      <g style="fill:#262626;" transform="translate(730.662919 659.183984)scale(0.275 -0.275)">
       <use xlink:href="#ArialMT-36"/>
       <use x="55.615234" xlink:href="#ArialMT-49"/>
       <use x="111.230469" xlink:href="#ArialMT-53"/>
       <use x="166.845703" xlink:href="#ArialMT-46"/>
       <use x="194.628906" xlink:href="#ArialMT-48"/>
       <use x="250.244141" xlink:href="#ArialMT-48"/>
      </g>
     </g>
    </g>
    <g id="xtick_8">
     <g id="line2d_8">
      <path clip-path="url(#p01bb86ace0)" d="M 872.357143 630 
L 872.357143 86.4 
" style="fill:none;stroke:#ffffff;stroke-linecap:round;"/>
     </g>
     <g id="text_8">
      <!-- $17.50 -->
      <g style="fill:#262626;" transform="translate(830.305776 659.183984)scale(0.275 -0.275)">
       <use xlink:href="#ArialMT-36"/>
       <use x="55.615234" xlink:href="#ArialMT-49"/>
       <use x="111.230469" xlink:href="#ArialMT-55"/>
       <use x="166.845703" xlink:href="#ArialMT-46"/>
       <use x="194.628906" xlink:href="#ArialMT-53"/>
       <use x="250.244141" xlink:href="#ArialMT-48"/>
      </g>
     </g>
    </g>
    <g id="xtick_9">
     <g id="line2d_9">
      <path clip-path="url(#p01bb86ace0)" d="M 972 630 
L 972 86.4 
" style="fill:none;stroke:#ffffff;stroke-linecap:round;"/>
     </g>
     <g id="text_9">
      <!-- $20.00 -->
      <g style="fill:#262626;" transform="translate(929.948633 659.183984)scale(0.275 -0.275)">
       <use xlink:href="#ArialMT-36"/>
       <use x="55.615234" xlink:href="#ArialMT-50"/>
       <use x="111.230469" xlink:href="#ArialMT-48"/>
       <use x="166.845703" xlink:href="#ArialMT-46"/>
       <use x="194.628906" xlink:href="#ArialMT-48"/>
       <use x="250.244141" xlink:href="#ArialMT-48"/>
      </g>
     </g>
    </g>
    <g id="text_10">
     <!-- TCG Market Price -->
     <defs>
      <path d="M 25.921875 0 
L 25.921875 63.140625 
L 2.34375 63.140625 
L 2.34375 71.578125 
L 59.078125 71.578125 
L 59.078125 63.140625 
L 35.40625 63.140625 
L 35.40625 0 
z
" id="ArialMT-84"/>
      <path d="M 58.796875 25.09375 
L 68.265625 22.703125 
Q 65.28125 11.03125 57.546875 4.90625 
Q 49.8125 -1.21875 38.625 -1.21875 
Q 27.046875 -1.21875 19.796875 3.484375 
Q 12.546875 8.203125 8.765625 17.140625 
Q 4.984375 26.078125 4.984375 36.328125 
Q 4.984375 47.515625 9.25 55.828125 
Q 13.53125 64.15625 21.40625 68.46875 
Q 29.296875 72.796875 38.765625 72.796875 
Q 49.515625 72.796875 56.828125 67.328125 
Q 64.15625 61.859375 67.046875 51.953125 
L 57.71875 49.75 
Q 55.21875 57.5625 50.484375 61.125 
Q 45.75 64.703125 38.578125 64.703125 
Q 30.328125 64.703125 24.78125 60.734375 
Q 19.234375 56.78125 16.984375 50.109375 
Q 14.75 43.453125 14.75 36.375 
Q 14.75 27.25 17.40625 20.4375 
Q 20.0625 13.625 25.671875 10.25 
Q 31.296875 6.890625 37.84375 6.890625 
Q 45.796875 6.890625 51.3125 11.46875 
Q 56.84375 16.0625 58.796875 25.09375 
z
" id="ArialMT-67"/>
      <path d="M 41.21875 28.078125 
L 41.21875 36.46875 
L 71.53125 36.53125 
L 71.53125 9.96875 
Q 64.546875 4.390625 57.125 1.578125 
Q 49.703125 -1.21875 41.890625 -1.21875 
Q 31.34375 -1.21875 22.71875 3.296875 
Q 14.109375 7.8125 9.71875 16.359375 
Q 5.328125 24.90625 5.328125 35.453125 
Q 5.328125 45.90625 9.6875 54.953125 
Q 14.0625 64.015625 22.265625 68.40625 
Q 30.46875 72.796875 41.15625 72.796875 
Q 48.921875 72.796875 55.1875 70.28125 
Q 61.46875 67.78125 65.03125 63.28125 
Q 68.609375 58.796875 70.453125 51.5625 
L 61.921875 49.21875 
Q 60.296875 54.6875 57.90625 57.8125 
Q 55.515625 60.9375 51.0625 62.8125 
Q 46.625 64.703125 41.21875 64.703125 
Q 34.71875 64.703125 29.984375 62.71875 
Q 25.25 60.75 22.34375 57.515625 
Q 19.4375 54.296875 17.828125 50.4375 
Q 15.09375 43.796875 15.09375 36.03125 
Q 15.09375 26.46875 18.390625 20.015625 
Q 21.6875 13.578125 27.984375 10.453125 
Q 34.28125 7.328125 41.359375 7.328125 
Q 47.515625 7.328125 53.375 9.6875 
Q 59.234375 12.0625 62.25 14.75 
L 62.25 28.078125 
z
" id="ArialMT-71"/>
      <path id="ArialMT-32"/>
      <path d="M 7.421875 0 
L 7.421875 71.578125 
L 21.6875 71.578125 
L 38.625 20.90625 
Q 40.96875 13.8125 42.046875 10.296875 
Q 43.265625 14.203125 45.84375 21.78125 
L 62.984375 71.578125 
L 75.734375 71.578125 
L 75.734375 0 
L 66.609375 0 
L 66.609375 59.90625 
L 45.796875 0 
L 37.25 0 
L 16.546875 60.9375 
L 16.546875 0 
z
" id="ArialMT-77"/>
      <path d="M 40.4375 6.390625 
Q 35.546875 2.25 31.03125 0.53125 
Q 26.515625 -1.171875 21.34375 -1.171875 
Q 12.796875 -1.171875 8.203125 3 
Q 3.609375 7.171875 3.609375 13.671875 
Q 3.609375 17.484375 5.34375 20.625 
Q 7.078125 23.78125 9.890625 25.6875 
Q 12.703125 27.59375 16.21875 28.5625 
Q 18.796875 29.25 24.03125 29.890625 
Q 34.671875 31.15625 39.703125 32.90625 
Q 39.75 34.71875 39.75 35.203125 
Q 39.75 40.578125 37.25 42.78125 
Q 33.890625 45.75 27.25 45.75 
Q 21.046875 45.75 18.09375 43.578125 
Q 15.140625 41.40625 13.71875 35.890625 
L 5.125 37.0625 
Q 6.296875 42.578125 8.984375 45.96875 
Q 11.671875 49.359375 16.75 51.1875 
Q 21.828125 53.03125 28.515625 53.03125 
Q 35.15625 53.03125 39.296875 51.46875 
Q 43.453125 49.90625 45.40625 47.53125 
Q 47.359375 45.171875 48.140625 41.546875 
Q 48.578125 39.3125 48.578125 33.453125 
L 48.578125 21.734375 
Q 48.578125 9.46875 49.140625 6.21875 
Q 49.703125 2.984375 51.375 0 
L 42.1875 0 
Q 40.828125 2.734375 40.4375 6.390625 
z
M 39.703125 26.03125 
Q 34.90625 24.078125 25.34375 22.703125 
Q 19.921875 21.921875 17.671875 20.9375 
Q 15.4375 19.96875 14.203125 18.09375 
Q 12.984375 16.21875 12.984375 13.921875 
Q 12.984375 10.40625 15.640625 8.0625 
Q 18.3125 5.71875 23.4375 5.71875 
Q 28.515625 5.71875 32.46875 7.9375 
Q 36.421875 10.15625 38.28125 14.015625 
Q 39.703125 17 39.703125 22.796875 
z
" id="ArialMT-97"/>
      <path d="M 6.5 0 
L 6.5 51.859375 
L 14.40625 51.859375 
L 14.40625 44 
Q 17.4375 49.515625 20 51.265625 
Q 22.5625 53.03125 25.640625 53.03125 
Q 30.078125 53.03125 34.671875 50.203125 
L 31.640625 42.046875 
Q 28.421875 43.953125 25.203125 43.953125 
Q 22.3125 43.953125 20.015625 42.21875 
Q 17.71875 40.484375 16.75 37.40625 
Q 15.28125 32.71875 15.28125 27.15625 
L 15.28125 0 
z
" id="ArialMT-114"/>
      <path d="M 6.640625 0 
L 6.640625 71.578125 
L 15.4375 71.578125 
L 15.4375 30.765625 
L 36.234375 51.859375 
L 47.609375 51.859375 
L 27.78125 32.625 
L 49.609375 0 
L 38.765625 0 
L 21.625 26.515625 
L 15.4375 20.5625 
L 15.4375 0 
z
" id="ArialMT-107"/>
      <path d="M 42.09375 16.703125 
L 51.171875 15.578125 
Q 49.03125 7.625 43.21875 3.21875 
Q 37.40625 -1.171875 28.375 -1.171875 
Q 17 -1.171875 10.328125 5.828125 
Q 3.65625 12.84375 3.65625 25.484375 
Q 3.65625 38.578125 10.390625 45.796875 
Q 17.140625 53.03125 27.875 53.03125 
Q 38.28125 53.03125 44.875 45.953125 
Q 51.46875 38.875 51.46875 26.03125 
Q 51.46875 25.25 51.421875 23.6875 
L 12.75 23.6875 
Q 13.234375 15.140625 17.578125 10.59375 
Q 21.921875 6.0625 28.421875 6.0625 
Q 33.25 6.0625 36.671875 8.59375 
Q 40.09375 11.140625 42.09375 16.703125 
z
M 13.234375 30.90625 
L 42.1875 30.90625 
Q 41.609375 37.453125 38.875 40.71875 
Q 34.671875 45.796875 27.984375 45.796875 
Q 21.921875 45.796875 17.796875 41.75 
Q 13.671875 37.703125 13.234375 30.90625 
z
" id="ArialMT-101"/>
      <path d="M 25.78125 7.859375 
L 27.046875 0.09375 
Q 23.34375 -0.6875 20.40625 -0.6875 
Q 15.625 -0.6875 12.984375 0.828125 
Q 10.359375 2.34375 9.28125 4.8125 
Q 8.203125 7.28125 8.203125 15.1875 
L 8.203125 45.015625 
L 1.765625 45.015625 
L 1.765625 51.859375 
L 8.203125 51.859375 
L 8.203125 64.703125 
L 16.9375 69.96875 
L 16.9375 51.859375 
L 25.78125 51.859375 
L 25.78125 45.015625 
L 16.9375 45.015625 
L 16.9375 14.703125 
Q 16.9375 10.9375 17.40625 9.859375 
Q 17.875 8.796875 18.921875 8.15625 
Q 19.96875 7.515625 21.921875 7.515625 
Q 23.390625 7.515625 25.78125 7.859375 
z
" id="ArialMT-116"/>
      <path d="M 7.71875 0 
L 7.71875 71.578125 
L 34.71875 71.578125 
Q 41.84375 71.578125 45.609375 70.90625 
Q 50.875 70.015625 54.4375 67.546875 
Q 58.015625 65.09375 60.1875 60.640625 
Q 62.359375 56.203125 62.359375 50.875 
Q 62.359375 41.75 56.546875 35.421875 
Q 50.734375 29.109375 35.546875 29.109375 
L 17.1875 29.109375 
L 17.1875 0 
z
M 17.1875 37.546875 
L 35.6875 37.546875 
Q 44.875 37.546875 48.734375 40.96875 
Q 52.59375 44.390625 52.59375 50.59375 
Q 52.59375 55.078125 50.3125 58.265625 
Q 48.046875 61.46875 44.34375 62.5 
Q 41.9375 63.140625 35.5 63.140625 
L 17.1875 63.140625 
z
" id="ArialMT-80"/>
      <path d="M 6.640625 61.46875 
L 6.640625 71.578125 
L 15.4375 71.578125 
L 15.4375 61.46875 
z
M 6.640625 0 
L 6.640625 51.859375 
L 15.4375 51.859375 
L 15.4375 0 
z
" id="ArialMT-105"/>
      <path d="M 40.4375 19 
L 49.078125 17.875 
Q 47.65625 8.9375 41.8125 3.875 
Q 35.984375 -1.171875 27.484375 -1.171875 
Q 16.84375 -1.171875 10.375 5.78125 
Q 3.90625 12.75 3.90625 25.734375 
Q 3.90625 34.125 6.6875 40.421875 
Q 9.46875 46.734375 15.15625 49.875 
Q 20.84375 53.03125 27.546875 53.03125 
Q 35.984375 53.03125 41.359375 48.75 
Q 46.734375 44.484375 48.25 36.625 
L 39.703125 35.296875 
Q 38.484375 40.53125 35.375 43.15625 
Q 32.28125 45.796875 27.875 45.796875 
Q 21.234375 45.796875 17.078125 41.03125 
Q 12.9375 36.28125 12.9375 25.984375 
Q 12.9375 15.53125 16.9375 10.796875 
Q 20.953125 6.0625 27.390625 6.0625 
Q 32.5625 6.0625 36.03125 9.234375 
Q 39.5 12.40625 40.4375 19 
z
" id="ArialMT-99"/>
     </defs>
     <g style="fill:#262626;" transform="translate(433.490625 690.123047)scale(0.3 -0.3)">
      <use xlink:href="#ArialMT-84"/>
      <use x="61.083984" xlink:href="#ArialMT-67"/>
      <use x="133.300781" xlink:href="#ArialMT-71"/>
      <use x="211.083984" xlink:href="#ArialMT-32"/>
      <use x="238.867188" xlink:href="#ArialMT-77"/>
      <use x="322.167969" xlink:href="#ArialMT-97"/>
      <use x="377.783203" xlink:href="#ArialMT-114"/>
      <use x="411.083984" xlink:href="#ArialMT-107"/>
      <use x="461.083984" xlink:href="#ArialMT-101"/>
      <use x="516.699219" xlink:href="#ArialMT-116"/>
      <use x="544.482422" xlink:href="#ArialMT-32"/>
      <use x="572.265625" xlink:href="#ArialMT-80"/>
      <use x="638.964844" xlink:href="#ArialMT-114"/>
      <use x="672.265625" xlink:href="#ArialMT-105"/>
      <use x="694.482422" xlink:href="#ArialMT-99"/>
      <use x="744.482422" xlink:href="#ArialMT-101"/>
     </g>
    </g>
   </g>
   <g id="matplotlib.axis_2">
    <g id="ytick_1">
     <g id="line2d_10">
      <path clip-path="url(#p01bb86ace0)" d="M 135 630 
L 972 630 
" style="fill:none;stroke:#ffffff;stroke-linecap:round;"/>
     </g>
     <g id="text_11">
      <!-- 0 -->
      <g style="fill:#262626;" transform="translate(110.207422 639.841992)scale(0.275 -0.275)">
       <use xlink:href="#ArialMT-48"/>
      </g>
     </g>
    </g>
    <g id="ytick_2">
     <g id="line2d_11">
      <path clip-path="url(#p01bb86ace0)" d="M 135 513.028855 
L 972 513.028855 
" style="fill:none;stroke:#ffffff;stroke-linecap:round;"/>
     </g>
     <g id="text_12">
      <!-- 500 -->
      <g style="fill:#262626;" transform="translate(79.622266 522.870848)scale(0.275 -0.275)">
       <use xlink:href="#ArialMT-53"/>
       <use x="55.615234" xlink:href="#ArialMT-48"/>
       <use x="111.230469" xlink:href="#ArialMT-48"/>
      </g>
     </g>
    </g>
    <g id="ytick_3">
     <g id="line2d_12">
      <path clip-path="url(#p01bb86ace0)" d="M 135 396.057711 
L 972 396.057711 
" style="fill:none;stroke:#ffffff;stroke-linecap:round;"/>
     </g>
     <g id="text_13">
      <!-- 1000 -->
      <g style="fill:#262626;" transform="translate(64.329688 405.899703)scale(0.275 -0.275)">
       <use xlink:href="#ArialMT-49"/>
       <use x="55.615234" xlink:href="#ArialMT-48"/>
       <use x="111.230469" xlink:href="#ArialMT-48"/>
       <use x="166.845703" xlink:href="#ArialMT-48"/>
      </g>
     </g>
    </g>
    <g id="ytick_4">
     <g id="line2d_13">
      <path clip-path="url(#p01bb86ace0)" d="M 135 279.086566 
L 972 279.086566 
" style="fill:none;stroke:#ffffff;stroke-linecap:round;"/>
     </g>
     <g id="text_14">
      <!-- 1500 -->
      <g style="fill:#262626;" transform="translate(64.329688 288.928559)scale(0.275 -0.275)">
       <use xlink:href="#ArialMT-49"/>
       <use x="55.615234" xlink:href="#ArialMT-53"/>
       <use x="111.230469" xlink:href="#ArialMT-48"/>
       <use x="166.845703" xlink:href="#ArialMT-48"/>
      </g>
     </g>
    </g>
    <g id="ytick_5">
     <g id="line2d_14">
      <path clip-path="url(#p01bb86ace0)" d="M 135 162.115422 
L 972 162.115422 
" style="fill:none;stroke:#ffffff;stroke-linecap:round;"/>
     </g>
     <g id="text_15">
      <!-- 2000 -->
      <g style="fill:#262626;" transform="translate(64.329688 171.957414)scale(0.275 -0.275)">
       <use xlink:href="#ArialMT-50"/>
       <use x="55.615234" xlink:href="#ArialMT-48"/>
       <use x="111.230469" xlink:href="#ArialMT-48"/>
       <use x="166.845703" xlink:href="#ArialMT-48"/>
      </g>
     </g>
    </g>
    <g id="text_16">
     <!-- Count -->
     <defs>
      <path d="M 3.328125 25.921875 
Q 3.328125 40.328125 11.328125 47.265625 
Q 18.015625 53.03125 27.640625 53.03125 
Q 38.328125 53.03125 45.109375 46.015625 
Q 51.90625 39.015625 51.90625 26.65625 
Q 51.90625 16.65625 48.90625 10.90625 
Q 45.90625 5.171875 40.15625 2 
Q 34.421875 -1.171875 27.640625 -1.171875 
Q 16.75 -1.171875 10.03125 5.8125 
Q 3.328125 12.796875 3.328125 25.921875 
z
M 12.359375 25.921875 
Q 12.359375 15.96875 16.703125 11.015625 
Q 21.046875 6.0625 27.640625 6.0625 
Q 34.1875 6.0625 38.53125 11.03125 
Q 42.875 16.015625 42.875 26.21875 
Q 42.875 35.84375 38.5 40.796875 
Q 34.125 45.75 27.640625 45.75 
Q 21.046875 45.75 16.703125 40.8125 
Q 12.359375 35.890625 12.359375 25.921875 
z
" id="ArialMT-111"/>
      <path d="M 40.578125 0 
L 40.578125 7.625 
Q 34.515625 -1.171875 24.125 -1.171875 
Q 19.53125 -1.171875 15.546875 0.578125 
Q 11.578125 2.34375 9.640625 5 
Q 7.71875 7.671875 6.9375 11.53125 
Q 6.390625 14.109375 6.390625 19.734375 
L 6.390625 51.859375 
L 15.1875 51.859375 
L 15.1875 23.09375 
Q 15.1875 16.21875 15.71875 13.8125 
Q 16.546875 10.359375 19.234375 8.375 
Q 21.921875 6.390625 25.875 6.390625 
Q 29.828125 6.390625 33.296875 8.421875 
Q 36.765625 10.453125 38.203125 13.9375 
Q 39.65625 17.4375 39.65625 24.078125 
L 39.65625 51.859375 
L 48.4375 51.859375 
L 48.4375 0 
z
" id="ArialMT-117"/>
      <path d="M 6.59375 0 
L 6.59375 51.859375 
L 14.5 51.859375 
L 14.5 44.484375 
Q 20.21875 53.03125 31 53.03125 
Q 35.6875 53.03125 39.625 51.34375 
Q 43.5625 49.65625 45.515625 46.921875 
Q 47.46875 44.1875 48.25 40.4375 
Q 48.734375 37.984375 48.734375 31.890625 
L 48.734375 0 
L 39.9375 0 
L 39.9375 31.546875 
Q 39.9375 36.921875 38.90625 39.578125 
Q 37.890625 42.234375 35.28125 43.8125 
Q 32.671875 45.40625 29.15625 45.40625 
Q 23.53125 45.40625 19.453125 41.84375 
Q 15.375 38.28125 15.375 28.328125 
L 15.375 0 
z
" id="ArialMT-110"/>
     </defs>
     <g style="fill:#262626;" transform="translate(54.367188 398.224219)rotate(-90)scale(0.3 -0.3)">
      <use xlink:href="#ArialMT-67"/>
      <use x="72.216797" xlink:href="#ArialMT-111"/>
      <use x="127.832031" xlink:href="#ArialMT-117"/>
      <use x="183.447266" xlink:href="#ArialMT-110"/>
      <use x="239.0625" xlink:href="#ArialMT-116"/>
     </g>
    </g>
   </g>
   <g id="patch_3">
    <path clip-path="url(#p01bb86ace0)" d="M 174.857143 630 
L 226.583743 630 
L 226.583743 112.285714 
L 174.857143 112.285714 
z
" style="fill:#4c72b0;fill-opacity:0.75;stroke:#ffffff;stroke-linejoin:miter;stroke-width:0.760909;"/>
   </g>
   <g id="patch_4">
    <path clip-path="url(#p01bb86ace0)" d="M 226.583743 630 
L 278.310343 630 
L 278.310343 570.344716 
L 226.583743 570.344716 
z
" style="fill:#4c72b0;fill-opacity:0.75;stroke:#ffffff;stroke-linejoin:miter;stroke-width:0.760909;"/>
   </g>
   <g id="patch_5">
    <path clip-path="url(#p01bb86ace0)" d="M 278.310343 630 
L 330.036943 630 
L 330.036943 599.119618 
L 278.310343 599.119618 
z
" style="fill:#4c72b0;fill-opacity:0.75;stroke:#ffffff;stroke-linejoin:miter;stroke-width:0.760909;"/>
   </g>
   <g id="patch_6">
    <path clip-path="url(#p01bb86ace0)" d="M 330.036943 630 
L 381.763543 630 
L 381.763543 607.54154 
L 330.036943 607.54154 
z
" style="fill:#4c72b0;fill-opacity:0.75;stroke:#ffffff;stroke-linejoin:miter;stroke-width:0.760909;"/>
   </g>
   <g id="patch_7">
    <path clip-path="url(#p01bb86ace0)" d="M 381.763543 630 
L 433.490143 630 
L 433.490143 619.238655 
L 381.763543 619.238655 
z
" style="fill:#4c72b0;fill-opacity:0.75;stroke:#ffffff;stroke-linejoin:miter;stroke-width:0.760909;"/>
   </g>
   <g id="patch_8">
    <path clip-path="url(#p01bb86ace0)" d="M 433.490143 630 
L 485.216743 630 
L 485.216743 620.174424 
L 433.490143 620.174424 
z
" style="fill:#4c72b0;fill-opacity:0.75;stroke:#ffffff;stroke-linejoin:miter;stroke-width:0.760909;"/>
   </g>
   <g id="patch_9">
    <path clip-path="url(#p01bb86ace0)" d="M 485.216743 630 
L 536.943343 630 
L 536.943343 622.513847 
L 485.216743 622.513847 
z
" style="fill:#4c72b0;fill-opacity:0.75;stroke:#ffffff;stroke-linejoin:miter;stroke-width:0.760909;"/>
   </g>
   <g id="patch_10">
    <path clip-path="url(#p01bb86ace0)" d="M 536.943343 630 
L 588.669943 630 
L 588.669943 625.321154 
L 536.943343 625.321154 
z
" style="fill:#4c72b0;fill-opacity:0.75;stroke:#ffffff;stroke-linejoin:miter;stroke-width:0.760909;"/>
   </g>
   <g id="patch_11">
    <path clip-path="url(#p01bb86ace0)" d="M 588.669943 630 
L 640.396543 630 
L 640.396543 627.192693 
L 588.669943 627.192693 
z
" style="fill:#4c72b0;fill-opacity:0.75;stroke:#ffffff;stroke-linejoin:miter;stroke-width:0.760909;"/>
   </g>
   <g id="patch_12">
    <path clip-path="url(#p01bb86ace0)" d="M 640.396543 630 
L 692.123143 630 
L 692.123143 625.555097 
L 640.396543 625.555097 
z
" style="fill:#4c72b0;fill-opacity:0.75;stroke:#ffffff;stroke-linejoin:miter;stroke-width:0.760909;"/>
   </g>
   <g id="patch_13">
    <path clip-path="url(#p01bb86ace0)" d="M 692.123143 630 
L 743.849743 630 
L 743.849743 627.192693 
L 692.123143 627.192693 
z
" style="fill:#4c72b0;fill-opacity:0.75;stroke:#ffffff;stroke-linejoin:miter;stroke-width:0.760909;"/>
   </g>
   <g id="patch_14">
    <path clip-path="url(#p01bb86ace0)" d="M 743.849743 630 
L 795.576343 630 
L 795.576343 626.724808 
L 743.849743 626.724808 
z
" style="fill:#4c72b0;fill-opacity:0.75;stroke:#ffffff;stroke-linejoin:miter;stroke-width:0.760909;"/>
   </g>
   <g id="patch_15">
    <path clip-path="url(#p01bb86ace0)" d="M 795.576343 630 
L 847.302943 630 
L 847.302943 626.724808 
L 795.576343 626.724808 
z
" style="fill:#4c72b0;fill-opacity:0.75;stroke:#ffffff;stroke-linejoin:miter;stroke-width:0.760909;"/>
   </g>
   <g id="patch_16">
    <path clip-path="url(#p01bb86ace0)" d="M 847.302943 630 
L 899.029543 630 
L 899.029543 627.660577 
L 847.302943 627.660577 
z
" style="fill:#4c72b0;fill-opacity:0.75;stroke:#ffffff;stroke-linejoin:miter;stroke-width:0.760909;"/>
   </g>
   <g id="patch_17">
    <path clip-path="url(#p01bb86ace0)" d="M 899.029543 630 
L 950.756143 630 
L 950.756143 629.064231 
L 899.029543 629.064231 
z
" style="fill:#4c72b0;fill-opacity:0.75;stroke:#ffffff;stroke-linejoin:miter;stroke-width:0.760909;"/>
   </g>
   <g id="patch_18">
    <path clip-path="url(#p01bb86ace0)" d="M 950.756143 630 
L 1002.482743 630 
L 1002.482743 628.596346 
L 950.756143 628.596346 
z
" style="fill:#4c72b0;fill-opacity:0.75;stroke:#ffffff;stroke-linejoin:miter;stroke-width:0.760909;"/>
   </g>
   <g id="patch_19">
    <path clip-path="url(#p01bb86ace0)" d="M 1002.482743 630 
L 1054.209343 630 
L 1054.209343 629.064231 
L 1002.482743 629.064231 
z
" style="fill:#4c72b0;fill-opacity:0.75;stroke:#ffffff;stroke-linejoin:miter;stroke-width:0.760909;"/>
   </g>
   <g id="patch_20">
    <path clip-path="url(#p01bb86ace0)" d="M 1054.209343 630 
L 1105.935943 630 
L 1105.935943 628.596346 
L 1054.209343 628.596346 
z
" style="fill:#4c72b0;fill-opacity:0.75;stroke:#ffffff;stroke-linejoin:miter;stroke-width:0.760909;"/>
   </g>
   <g id="patch_21">
    <path clip-path="url(#p01bb86ace0)" d="M 1105.935943 630 
L 1157.662543 630 
L 1157.662543 628.596346 
L 1105.935943 628.596346 
z
" style="fill:#4c72b0;fill-opacity:0.75;stroke:#ffffff;stroke-linejoin:miter;stroke-width:0.760909;"/>
   </g>
   <g id="patch_22">
    <path clip-path="url(#p01bb86ace0)" d="M 1157.662543 630 
L 1209.389143 630 
L 1209.389143 629.532115 
L 1157.662543 629.532115 
z
" style="fill:#4c72b0;fill-opacity:0.75;stroke:#ffffff;stroke-linejoin:miter;stroke-width:0.760909;"/>
   </g>
   <g id="patch_23">
    <path clip-path="url(#p01bb86ace0)" d="M 1209.389143 630 
L 1261.115743 630 
L 1261.115743 628.596346 
L 1209.389143 628.596346 
z
" style="fill:#4c72b0;fill-opacity:0.75;stroke:#ffffff;stroke-linejoin:miter;stroke-width:0.760909;"/>
   </g>
   <g id="patch_24">
    <path clip-path="url(#p01bb86ace0)" d="M 1261.115743 630 
L 1312.842343 630 
L 1312.842343 629.298173 
L 1261.115743 629.298173 
z
" style="fill:#4c72b0;fill-opacity:0.75;stroke:#ffffff;stroke-linejoin:miter;stroke-width:0.760909;"/>
   </g>
   <g id="patch_25">
    <path clip-path="url(#p01bb86ace0)" d="M 1312.842343 630 
L 1364.568943 630 
L 1364.568943 629.532115 
L 1312.842343 629.532115 
z
" style="fill:#4c72b0;fill-opacity:0.75;stroke:#ffffff;stroke-linejoin:miter;stroke-width:0.760909;"/>
   </g>
   <g id="patch_26">
    <path clip-path="url(#p01bb86ace0)" d="M 1364.568943 630 
L 1416.295543 630 
L 1416.295543 629.064231 
L 1364.568943 629.064231 
z
" style="fill:#4c72b0;fill-opacity:0.75;stroke:#ffffff;stroke-linejoin:miter;stroke-width:0.760909;"/>
   </g>
   <g id="patch_27">
    <path clip-path="url(#p01bb86ace0)" d="M 1416.295543 630 
L 1468.022143 630 
L 1468.022143 629.766058 
L 1416.295543 629.766058 
z
" style="fill:#4c72b0;fill-opacity:0.75;stroke:#ffffff;stroke-linejoin:miter;stroke-width:0.760909;"/>
   </g>
   <g id="patch_28">
    <path clip-path="url(#p01bb86ace0)" d="M 1468.022143 630 
L 1519.748743 630 
L 1519.748743 629.532115 
L 1468.022143 629.532115 
z
" style="fill:#4c72b0;fill-opacity:0.75;stroke:#ffffff;stroke-linejoin:miter;stroke-width:0.760909;"/>
   </g>
   <g id="patch_29">
    <path clip-path="url(#p01bb86ace0)" d="M 1519.748743 630 
L 1571.475343 630 
L 1571.475343 630 
L 1519.748743 630 
z
" style="fill:#4c72b0;fill-opacity:0.75;stroke:#ffffff;stroke-linejoin:miter;stroke-width:0.760909;"/>
   </g>
   <g id="patch_30">
    <path clip-path="url(#p01bb86ace0)" d="M 1571.475343 630 
L 1623.201943 630 
L 1623.201943 629.766058 
L 1571.475343 629.766058 
z
" style="fill:#4c72b0;fill-opacity:0.75;stroke:#ffffff;stroke-linejoin:miter;stroke-width:0.760909;"/>
   </g>
   <g id="patch_31">
    <path clip-path="url(#p01bb86ace0)" d="M 1623.201943 630 
L 1674.928543 630 
L 1674.928543 629.766058 
L 1623.201943 629.766058 
z
" style="fill:#4c72b0;fill-opacity:0.75;stroke:#ffffff;stroke-linejoin:miter;stroke-width:0.760909;"/>
   </g>
   <g id="patch_32">
    <path clip-path="url(#p01bb86ace0)" d="M 1674.928543 630 
L 1726.655143 630 
L 1726.655143 629.766058 
L 1674.928543 629.766058 
z
" style="fill:#4c72b0;fill-opacity:0.75;stroke:#ffffff;stroke-linejoin:miter;stroke-width:0.760909;"/>
   </g>
   <g id="patch_33">
    <path clip-path="url(#p01bb86ace0)" d="M 1726.655143 630 
L 1778.381743 630 
L 1778.381743 630 
L 1726.655143 630 
z
" style="fill:#4c72b0;fill-opacity:0.75;stroke:#ffffff;stroke-linejoin:miter;stroke-width:0.760909;"/>
   </g>
   <g id="patch_34">
    <path clip-path="url(#p01bb86ace0)" d="M 1778.381743 630 
L 1830.108343 630 
L 1830.108343 629.766058 
L 1778.381743 629.766058 
z
" style="fill:#4c72b0;fill-opacity:0.75;stroke:#ffffff;stroke-linejoin:miter;stroke-width:0.760909;"/>
   </g>
   <g id="patch_35">
    <path clip-path="url(#p01bb86ace0)" d="M 1830.108343 630 
L 1881.834943 630 
L 1881.834943 630 
L 1830.108343 630 
z
" style="fill:#4c72b0;fill-opacity:0.75;stroke:#ffffff;stroke-linejoin:miter;stroke-width:0.760909;"/>
   </g>
   <g id="patch_36">
    <path clip-path="url(#p01bb86ace0)" d="M 1881.834943 630 
L 1933.561543 630 
L 1933.561543 629.532115 
L 1881.834943 629.532115 
z
" style="fill:#4c72b0;fill-opacity:0.75;stroke:#ffffff;stroke-linejoin:miter;stroke-width:0.760909;"/>
   </g>
   <g id="patch_37">
    <path clip-path="url(#p01bb86ace0)" d="M 1933.561543 630 
L 1985.288143 630 
L 1985.288143 630 
L 1933.561543 630 
z
" style="fill:#4c72b0;fill-opacity:0.75;stroke:#ffffff;stroke-linejoin:miter;stroke-width:0.760909;"/>
   </g>
   <g id="patch_38">
    <path clip-path="url(#p01bb86ace0)" d="M 1985.288143 630 
L 2037.014743 630 
L 2037.014743 630 
L 1985.288143 630 
z
" style="fill:#4c72b0;fill-opacity:0.75;stroke:#ffffff;stroke-linejoin:miter;stroke-width:0.760909;"/>
   </g>
   <g id="patch_39">
    <path clip-path="url(#p01bb86ace0)" d="M 2037.014743 630 
L 2088.741343 630 
L 2088.741343 630 
L 2037.014743 630 
z
" style="fill:#4c72b0;fill-opacity:0.75;stroke:#ffffff;stroke-linejoin:miter;stroke-width:0.760909;"/>
   </g>
   <g id="patch_40">
    <path clip-path="url(#p01bb86ace0)" d="M 2088.741343 630 
L 2140.467943 630 
L 2140.467943 630 
L 2088.741343 630 
z
" style="fill:#4c72b0;fill-opacity:0.75;stroke:#ffffff;stroke-linejoin:miter;stroke-width:0.760909;"/>
   </g>
   <g id="patch_41">
    <path clip-path="url(#p01bb86ace0)" d="M 2140.467943 630 
L 2192.194543 630 
L 2192.194543 629.532115 
L 2140.467943 629.532115 
z
" style="fill:#4c72b0;fill-opacity:0.75;stroke:#ffffff;stroke-linejoin:miter;stroke-width:0.760909;"/>
   </g>
   <g id="patch_42">
    <path clip-path="url(#p01bb86ace0)" d="M 2192.194543 630 
L 2243.921143 630 
L 2243.921143 629.766058 
L 2192.194543 629.766058 
z
" style="fill:#4c72b0;fill-opacity:0.75;stroke:#ffffff;stroke-linejoin:miter;stroke-width:0.760909;"/>
   </g>
   <g id="patch_43">
    <path clip-path="url(#p01bb86ace0)" d="M 2243.921143 630 
L 2295.647743 630 
L 2295.647743 630 
L 2243.921143 630 
z
" style="fill:#4c72b0;fill-opacity:0.75;stroke:#ffffff;stroke-linejoin:miter;stroke-width:0.760909;"/>
   </g>
   <g id="patch_44">
    <path clip-path="url(#p01bb86ace0)" d="M 2295.647743 630 
L 2347.374343 630 
L 2347.374343 630 
L 2295.647743 630 
z
" style="fill:#4c72b0;fill-opacity:0.75;stroke:#ffffff;stroke-linejoin:miter;stroke-width:0.760909;"/>
   </g>
   <g id="patch_45">
    <path clip-path="url(#p01bb86ace0)" d="M 2347.374343 630 
L 2399.100943 630 
L 2399.100943 630 
L 2347.374343 630 
z
" style="fill:#4c72b0;fill-opacity:0.75;stroke:#ffffff;stroke-linejoin:miter;stroke-width:0.760909;"/>
   </g>
   <g id="patch_46">
    <path clip-path="url(#p01bb86ace0)" d="M 2399.100943 630 
L 2450.827543 630 
L 2450.827543 630 
L 2399.100943 630 
z
" style="fill:#4c72b0;fill-opacity:0.75;stroke:#ffffff;stroke-linejoin:miter;stroke-width:0.760909;"/>
   </g>
   <g id="patch_47">
    <path clip-path="url(#p01bb86ace0)" d="M 2450.827543 630 
L 2502.554143 630 
L 2502.554143 630 
L 2450.827543 630 
z
" style="fill:#4c72b0;fill-opacity:0.75;stroke:#ffffff;stroke-linejoin:miter;stroke-width:0.760909;"/>
   </g>
   <g id="patch_48">
    <path clip-path="url(#p01bb86ace0)" d="M 2502.554143 630 
L 2554.280743 630 
L 2554.280743 630 
L 2502.554143 630 
z
" style="fill:#4c72b0;fill-opacity:0.75;stroke:#ffffff;stroke-linejoin:miter;stroke-width:0.760909;"/>
   </g>
   <g id="patch_49">
    <path clip-path="url(#p01bb86ace0)" d="M 2554.280743 630 
L 2606.007343 630 
L 2606.007343 630 
L 2554.280743 630 
z
" style="fill:#4c72b0;fill-opacity:0.75;stroke:#ffffff;stroke-linejoin:miter;stroke-width:0.760909;"/>
   </g>
   <g id="patch_50">
    <path clip-path="url(#p01bb86ace0)" d="M 2606.007343 630 
L 2657.733943 630 
L 2657.733943 630 
L 2606.007343 630 
z
" style="fill:#4c72b0;fill-opacity:0.75;stroke:#ffffff;stroke-linejoin:miter;stroke-width:0.760909;"/>
   </g>
   <g id="patch_51">
    <path clip-path="url(#p01bb86ace0)" d="M 2657.733943 630 
L 2709.460543 630 
L 2709.460543 630 
L 2657.733943 630 
z
" style="fill:#4c72b0;fill-opacity:0.75;stroke:#ffffff;stroke-linejoin:miter;stroke-width:0.760909;"/>
   </g>
   <g id="patch_52">
    <path clip-path="url(#p01bb86ace0)" d="M 2709.460543 630 
L 2761.187143 630 
L 2761.187143 629.766058 
L 2709.460543 629.766058 
z
" style="fill:#4c72b0;fill-opacity:0.75;stroke:#ffffff;stroke-linejoin:miter;stroke-width:0.760909;"/>
   </g>
   <g id="patch_53">
    <path clip-path="url(#p01bb86ace0)" d="M 2761.187143 630 
L 2812.913743 630 
L 2812.913743 630 
L 2761.187143 630 
z
" style="fill:#4c72b0;fill-opacity:0.75;stroke:#ffffff;stroke-linejoin:miter;stroke-width:0.760909;"/>
   </g>
   <g id="patch_54">
    <path clip-path="url(#p01bb86ace0)" d="M 2812.913743 630 
L 2864.640343 630 
L 2864.640343 630 
L 2812.913743 630 
z
" style="fill:#4c72b0;fill-opacity:0.75;stroke:#ffffff;stroke-linejoin:miter;stroke-width:0.760909;"/>
   </g>
   <g id="patch_55">
    <path clip-path="url(#p01bb86ace0)" d="M 2864.640343 630 
L 2916.366943 630 
L 2916.366943 630 
L 2864.640343 630 
z
" style="fill:#4c72b0;fill-opacity:0.75;stroke:#ffffff;stroke-linejoin:miter;stroke-width:0.760909;"/>
   </g>
   <g id="patch_56">
    <path clip-path="url(#p01bb86ace0)" d="M 2916.366943 630 
L 2968.093543 630 
L 2968.093543 629.766058 
L 2916.366943 629.766058 
z
" style="fill:#4c72b0;fill-opacity:0.75;stroke:#ffffff;stroke-linejoin:miter;stroke-width:0.760909;"/>
   </g>
   <g id="patch_57">
    <path clip-path="url(#p01bb86ace0)" d="M 2968.093543 630 
L 3019.820143 630 
L 3019.820143 630 
L 2968.093543 630 
z
" style="fill:#4c72b0;fill-opacity:0.75;stroke:#ffffff;stroke-linejoin:miter;stroke-width:0.760909;"/>
   </g>
   <g id="patch_58">
    <path clip-path="url(#p01bb86ace0)" d="M 3019.820143 630 
L 3071.546743 630 
L 3071.546743 630 
L 3019.820143 630 
z
" style="fill:#4c72b0;fill-opacity:0.75;stroke:#ffffff;stroke-linejoin:miter;stroke-width:0.760909;"/>
   </g>
   <g id="patch_59">
    <path clip-path="url(#p01bb86ace0)" d="M 3071.546743 630 
L 3123.273343 630 
L 3123.273343 630 
L 3071.546743 630 
z
" style="fill:#4c72b0;fill-opacity:0.75;stroke:#ffffff;stroke-linejoin:miter;stroke-width:0.760909;"/>
   </g>
   <g id="patch_60">
    <path clip-path="url(#p01bb86ace0)" d="M 3123.273343 630 
L 3174.999943 630 
L 3174.999943 630 
L 3123.273343 630 
z
" style="fill:#4c72b0;fill-opacity:0.75;stroke:#ffffff;stroke-linejoin:miter;stroke-width:0.760909;"/>
   </g>
   <g id="patch_61">
    <path clip-path="url(#p01bb86ace0)" d="M 3174.999943 630 
L 3226.726543 630 
L 3226.726543 630 
L 3174.999943 630 
z
" style="fill:#4c72b0;fill-opacity:0.75;stroke:#ffffff;stroke-linejoin:miter;stroke-width:0.760909;"/>
   </g>
   <g id="patch_62">
    <path clip-path="url(#p01bb86ace0)" d="M 3226.726543 630 
L 3278.453143 630 
L 3278.453143 630 
L 3226.726543 630 
z
" style="fill:#4c72b0;fill-opacity:0.75;stroke:#ffffff;stroke-linejoin:miter;stroke-width:0.760909;"/>
   </g>
   <g id="patch_63">
    <path clip-path="url(#p01bb86ace0)" d="M 3278.453143 630 
L 3330.179743 630 
L 3330.179743 629.766058 
L 3278.453143 629.766058 
z
" style="fill:#4c72b0;fill-opacity:0.75;stroke:#ffffff;stroke-linejoin:miter;stroke-width:0.760909;"/>
   </g>
   <g id="patch_64">
    <path clip-path="url(#p01bb86ace0)" d="M 3330.179743 630 
L 3381.906343 630 
L 3381.906343 630 
L 3330.179743 630 
z
" style="fill:#4c72b0;fill-opacity:0.75;stroke:#ffffff;stroke-linejoin:miter;stroke-width:0.760909;"/>
   </g>
   <g id="patch_65">
    <path clip-path="url(#p01bb86ace0)" d="M 3381.906343 630 
L 3433.632943 630 
L 3433.632943 630 
L 3381.906343 630 
z
" style="fill:#4c72b0;fill-opacity:0.75;stroke:#ffffff;stroke-linejoin:miter;stroke-width:0.760909;"/>
   </g>
   <g id="patch_66">
    <path clip-path="url(#p01bb86ace0)" d="M 3433.632943 630 
L 3485.359543 630 
L 3485.359543 630 
L 3433.632943 630 
z
" style="fill:#4c72b0;fill-opacity:0.75;stroke:#ffffff;stroke-linejoin:miter;stroke-width:0.760909;"/>
   </g>
   <g id="patch_67">
    <path clip-path="url(#p01bb86ace0)" d="M 3485.359543 630 
L 3537.086143 630 
L 3537.086143 630 
L 3485.359543 630 
z
" style="fill:#4c72b0;fill-opacity:0.75;stroke:#ffffff;stroke-linejoin:miter;stroke-width:0.760909;"/>
   </g>
   <g id="patch_68">
    <path clip-path="url(#p01bb86ace0)" d="M 3537.086143 630 
L 3588.812743 630 
L 3588.812743 629.766058 
L 3537.086143 629.766058 
z
" style="fill:#4c72b0;fill-opacity:0.75;stroke:#ffffff;stroke-linejoin:miter;stroke-width:0.760909;"/>
   </g>
   <g id="patch_69">
    <path clip-path="url(#p01bb86ace0)" d="M 3588.812743 630 
L 3640.539343 630 
L 3640.539343 630 
L 3588.812743 630 
z
" style="fill:#4c72b0;fill-opacity:0.75;stroke:#ffffff;stroke-linejoin:miter;stroke-width:0.760909;"/>
   </g>
   <g id="patch_70">
    <path clip-path="url(#p01bb86ace0)" d="M 3640.539343 630 
L 3692.265943 630 
L 3692.265943 630 
L 3640.539343 630 
z
" style="fill:#4c72b0;fill-opacity:0.75;stroke:#ffffff;stroke-linejoin:miter;stroke-width:0.760909;"/>
   </g>
   <g id="patch_71">
    <path clip-path="url(#p01bb86ace0)" d="M 3692.265943 630 
L 3743.992543 630 
L 3743.992543 630 
L 3692.265943 630 
z
" style="fill:#4c72b0;fill-opacity:0.75;stroke:#ffffff;stroke-linejoin:miter;stroke-width:0.760909;"/>
   </g>
   <g id="patch_72">
    <path clip-path="url(#p01bb86ace0)" d="M 3743.992543 630 
L 3795.719143 630 
L 3795.719143 630 
L 3743.992543 630 
z
" style="fill:#4c72b0;fill-opacity:0.75;stroke:#ffffff;stroke-linejoin:miter;stroke-width:0.760909;"/>
   </g>
   <g id="patch_73">
    <path clip-path="url(#p01bb86ace0)" d="M 3795.719143 630 
L 3847.445743 630 
L 3847.445743 630 
L 3795.719143 630 
z
" style="fill:#4c72b0;fill-opacity:0.75;stroke:#ffffff;stroke-linejoin:miter;stroke-width:0.760909;"/>
   </g>
   <g id="patch_74">
    <path clip-path="url(#p01bb86ace0)" d="M 3847.445743 630 
L 3899.172343 630 
L 3899.172343 630 
L 3847.445743 630 
z
" style="fill:#4c72b0;fill-opacity:0.75;stroke:#ffffff;stroke-linejoin:miter;stroke-width:0.760909;"/>
   </g>
   <g id="patch_75">
    <path clip-path="url(#p01bb86ace0)" d="M 3899.172343 630 
L 3950.898943 630 
L 3950.898943 630 
L 3899.172343 630 
z
" style="fill:#4c72b0;fill-opacity:0.75;stroke:#ffffff;stroke-linejoin:miter;stroke-width:0.760909;"/>
   </g>
   <g id="patch_76">
    <path clip-path="url(#p01bb86ace0)" d="M 3950.898943 630 
L 4002.625543 630 
L 4002.625543 629.766058 
L 3950.898943 629.766058 
z
" style="fill:#4c72b0;fill-opacity:0.75;stroke:#ffffff;stroke-linejoin:miter;stroke-width:0.760909;"/>
   </g>
   <g id="patch_77">
    <path clip-path="url(#p01bb86ace0)" d="M 4002.625543 630 
L 4054.352143 630 
L 4054.352143 630 
L 4002.625543 630 
z
" style="fill:#4c72b0;fill-opacity:0.75;stroke:#ffffff;stroke-linejoin:miter;stroke-width:0.760909;"/>
   </g>
   <g id="patch_78">
    <path clip-path="url(#p01bb86ace0)" d="M 4054.352143 630 
L 4106.078743 630 
L 4106.078743 629.766058 
L 4054.352143 629.766058 
z
" style="fill:#4c72b0;fill-opacity:0.75;stroke:#ffffff;stroke-linejoin:miter;stroke-width:0.760909;"/>
   </g>
   <g id="patch_79">
    <path clip-path="url(#p01bb86ace0)" d="M 4106.078743 630 
L 4157.805343 630 
L 4157.805343 630 
L 4106.078743 630 
z
" style="fill:#4c72b0;fill-opacity:0.75;stroke:#ffffff;stroke-linejoin:miter;stroke-width:0.760909;"/>
   </g>
   <g id="patch_80">
    <path clip-path="url(#p01bb86ace0)" d="M 4157.805343 630 
L 4209.531943 630 
L 4209.531943 629.766058 
L 4157.805343 629.766058 
z
" style="fill:#4c72b0;fill-opacity:0.75;stroke:#ffffff;stroke-linejoin:miter;stroke-width:0.760909;"/>
   </g>
   <g id="patch_81">
    <path clip-path="url(#p01bb86ace0)" d="M 4209.531943 630 
L 4261.258543 630 
L 4261.258543 630 
L 4209.531943 630 
z
" style="fill:#4c72b0;fill-opacity:0.75;stroke:#ffffff;stroke-linejoin:miter;stroke-width:0.760909;"/>
   </g>
   <g id="patch_82">
    <path clip-path="url(#p01bb86ace0)" d="M 4261.258543 630 
L 4312.985143 630 
L 4312.985143 630 
L 4261.258543 630 
z
" style="fill:#4c72b0;fill-opacity:0.75;stroke:#ffffff;stroke-linejoin:miter;stroke-width:0.760909;"/>
   </g>
   <g id="patch_83">
    <path clip-path="url(#p01bb86ace0)" d="M 4312.985143 630 
L 4364.711743 630 
L 4364.711743 630 
L 4312.985143 630 
z
" style="fill:#4c72b0;fill-opacity:0.75;stroke:#ffffff;stroke-linejoin:miter;stroke-width:0.760909;"/>
   </g>
   <g id="patch_84">
    <path clip-path="url(#p01bb86ace0)" d="M 4364.711743 630 
L 4416.438343 630 
L 4416.438343 630 
L 4364.711743 630 
z
" style="fill:#4c72b0;fill-opacity:0.75;stroke:#ffffff;stroke-linejoin:miter;stroke-width:0.760909;"/>
   </g>
   <g id="patch_85">
    <path clip-path="url(#p01bb86ace0)" d="M 4416.438343 630 
L 4468.164943 630 
L 4468.164943 630 
L 4416.438343 630 
z
" style="fill:#4c72b0;fill-opacity:0.75;stroke:#ffffff;stroke-linejoin:miter;stroke-width:0.760909;"/>
   </g>
   <g id="patch_86">
    <path clip-path="url(#p01bb86ace0)" d="M 4468.164943 630 
L 4519.891543 630 
L 4519.891543 630 
L 4468.164943 630 
z
" style="fill:#4c72b0;fill-opacity:0.75;stroke:#ffffff;stroke-linejoin:miter;stroke-width:0.760909;"/>
   </g>
   <g id="patch_87">
    <path clip-path="url(#p01bb86ace0)" d="M 4519.891543 630 
L 4571.618143 630 
L 4571.618143 630 
L 4519.891543 630 
z
" style="fill:#4c72b0;fill-opacity:0.75;stroke:#ffffff;stroke-linejoin:miter;stroke-width:0.760909;"/>
   </g>
   <g id="patch_88">
    <path clip-path="url(#p01bb86ace0)" d="M 4571.618143 630 
L 4623.344743 630 
L 4623.344743 630 
L 4571.618143 630 
z
" style="fill:#4c72b0;fill-opacity:0.75;stroke:#ffffff;stroke-linejoin:miter;stroke-width:0.760909;"/>
   </g>
   <g id="patch_89">
    <path clip-path="url(#p01bb86ace0)" d="M 4623.344743 630 
L 4675.071343 630 
L 4675.071343 630 
L 4623.344743 630 
z
" style="fill:#4c72b0;fill-opacity:0.75;stroke:#ffffff;stroke-linejoin:miter;stroke-width:0.760909;"/>
   </g>
   <g id="patch_90">
    <path clip-path="url(#p01bb86ace0)" d="M 4675.071343 630 
L 4726.797943 630 
L 4726.797943 630 
L 4675.071343 630 
z
" style="fill:#4c72b0;fill-opacity:0.75;stroke:#ffffff;stroke-linejoin:miter;stroke-width:0.760909;"/>
   </g>
   <g id="patch_91">
    <path clip-path="url(#p01bb86ace0)" d="M 4726.797943 630 
L 4778.524543 630 
L 4778.524543 630 
L 4726.797943 630 
z
" style="fill:#4c72b0;fill-opacity:0.75;stroke:#ffffff;stroke-linejoin:miter;stroke-width:0.760909;"/>
   </g>
   <g id="patch_92">
    <path clip-path="url(#p01bb86ace0)" d="M 4778.524543 630 
L 4830.251143 630 
L 4830.251143 630 
L 4778.524543 630 
z
" style="fill:#4c72b0;fill-opacity:0.75;stroke:#ffffff;stroke-linejoin:miter;stroke-width:0.760909;"/>
   </g>
   <g id="patch_93">
    <path clip-path="url(#p01bb86ace0)" d="M 4830.251143 630 
L 4881.977743 630 
L 4881.977743 630 
L 4830.251143 630 
z
" style="fill:#4c72b0;fill-opacity:0.75;stroke:#ffffff;stroke-linejoin:miter;stroke-width:0.760909;"/>
   </g>
   <g id="patch_94">
    <path clip-path="url(#p01bb86ace0)" d="M 4881.977743 630 
L 4933.704343 630 
L 4933.704343 630 
L 4881.977743 630 
z
" style="fill:#4c72b0;fill-opacity:0.75;stroke:#ffffff;stroke-linejoin:miter;stroke-width:0.760909;"/>
   </g>
   <g id="patch_95">
    <path clip-path="url(#p01bb86ace0)" d="M 4933.704343 630 
L 4985.430943 630 
L 4985.430943 630 
L 4933.704343 630 
z
" style="fill:#4c72b0;fill-opacity:0.75;stroke:#ffffff;stroke-linejoin:miter;stroke-width:0.760909;"/>
   </g>
   <g id="patch_96">
    <path clip-path="url(#p01bb86ace0)" d="M 4985.430943 630 
L 5037.157543 630 
L 5037.157543 630 
L 4985.430943 630 
z
" style="fill:#4c72b0;fill-opacity:0.75;stroke:#ffffff;stroke-linejoin:miter;stroke-width:0.760909;"/>
   </g>
   <g id="patch_97">
    <path clip-path="url(#p01bb86ace0)" d="M 5037.157543 630 
L 5088.884143 630 
L 5088.884143 630 
L 5037.157543 630 
z
" style="fill:#4c72b0;fill-opacity:0.75;stroke:#ffffff;stroke-linejoin:miter;stroke-width:0.760909;"/>
   </g>
   <g id="patch_98">
    <path clip-path="url(#p01bb86ace0)" d="M 5088.884143 630 
L 5140.610743 630 
L 5140.610743 630 
L 5088.884143 630 
z
" style="fill:#4c72b0;fill-opacity:0.75;stroke:#ffffff;stroke-linejoin:miter;stroke-width:0.760909;"/>
   </g>
   <g id="patch_99">
    <path clip-path="url(#p01bb86ace0)" d="M 5140.610743 630 
L 5192.337343 630 
L 5192.337343 630 
L 5140.610743 630 
z
" style="fill:#4c72b0;fill-opacity:0.75;stroke:#ffffff;stroke-linejoin:miter;stroke-width:0.760909;"/>
   </g>
   <g id="patch_100">
    <path clip-path="url(#p01bb86ace0)" d="M 5192.337343 630 
L 5244.063943 630 
L 5244.063943 630 
L 5192.337343 630 
z
" style="fill:#4c72b0;fill-opacity:0.75;stroke:#ffffff;stroke-linejoin:miter;stroke-width:0.760909;"/>
   </g>
   <g id="patch_101">
    <path clip-path="url(#p01bb86ace0)" d="M 5244.063943 630 
L 5295.790543 630 
L 5295.790543 630 
L 5244.063943 630 
z
" style="fill:#4c72b0;fill-opacity:0.75;stroke:#ffffff;stroke-linejoin:miter;stroke-width:0.760909;"/>
   </g>
   <g id="patch_102">
    <path clip-path="url(#p01bb86ace0)" d="M 5295.790543 630 
L 5347.517143 630 
L 5347.517143 629.766058 
L 5295.790543 629.766058 
z
" style="fill:#4c72b0;fill-opacity:0.75;stroke:#ffffff;stroke-linejoin:miter;stroke-width:0.760909;"/>
   </g>
   <g id="patch_103">
    <path d="M 135 630 
L 135 86.4 
" style="fill:none;stroke:#ffffff;stroke-linecap:square;stroke-linejoin:miter;stroke-width:1.25;"/>
   </g>
   <g id="patch_104">
    <path d="M 972 630 
L 972 86.4 
" style="fill:none;stroke:#ffffff;stroke-linecap:square;stroke-linejoin:miter;stroke-width:1.25;"/>
   </g>
   <g id="patch_105">
    <path d="M 135 630 
L 972 630 
" style="fill:none;stroke:#ffffff;stroke-linecap:square;stroke-linejoin:miter;stroke-width:1.25;"/>
   </g>
   <g id="patch_106">
    <path d="M 135 86.4 
L 972 86.4 
" style="fill:none;stroke:#ffffff;stroke-linecap:square;stroke-linejoin:miter;stroke-width:1.25;"/>
   </g>
  </g>
 </g>
 <defs>
  <clipPath id="p01bb86ace0">
   <rect height="543.6" width="837" x="135" y="86.4"/>
  </clipPath>
 </defs>
</svg>
